<?xml version="1.0" encoding="UTF-8"?>
<svg version="1.1" xmlns="http://www.w3.org/2000/svg" width="287" height="174">
<path d="M0 0 C94.71 0 189.42 0 287 0 C287 57.42 287 114.84 287 174 C192.29 174 97.58 174 0 174 C0 116.58 0 59.16 0 0 Z " fill="#FDFDFD" transform="translate(0,0)"/>
<path d="M0 0 C0.33 0 0.66 0 1 0 C1.03738281 0.83144531 1.07476562 1.66289062 1.11328125 2.51953125 C1.17902344 3.60621094 1.24476562 4.69289063 1.3125 5.8125 C1.37050781 6.89144531 1.42851563 7.97039063 1.48828125 9.08203125 C2.05983077 12.34117243 2.69149023 12.83391756 5 15 C6.39300616 19.71412616 6.10902707 24.55584356 6.0625 29.421875 C6.05871338 30.32246643 6.05492676 31.22305786 6.05102539 32.15093994 C6.03883931 35.01734261 6.02019577 37.88364325 6 40.75 C5.97351688 44.53645536 5.95348869 48.32286249 5.9375 52.109375 C5.92920166 52.98535339 5.92090332 53.86133179 5.91235352 54.76385498 C5.90381913 56.84275777 5.94656124 58.92176663 6 61 C6.495 61.495 6.495 61.495 7 62 C7.10164789 64.6273103 7.13951167 67.22769221 7.1328125 69.85546875 C7.13479141 71.06423676 7.13479141 71.06423676 7.1368103 72.29742432 C7.13873328 74.92748816 7.13238436 77.55744693 7.125 80.1875 C7.12411377 81.07293488 7.12322754 81.95836975 7.12231445 82.87063599 C7.10645756 96.27199694 6.85034807 109.62220262 6 123 C10.29 123 14.58 123 19 123 C19 121.02 19 119.04 19 117 C20.65 117 22.3 117 24 117 C24 116.34 24 115.68 24 115 C23.01 114.67 22.02 114.34 21 114 C22.35156429 113.22461277 23.70642085 112.45496383 25.0625 111.6875 C26.19365234 111.04361328 26.19365234 111.04361328 27.34765625 110.38671875 C29.88830826 109.05839553 32.47266175 107.94041774 35.11499023 106.83227539 C37.09886563 105.95634854 39.013979 104.99343688 40.9375 103.9921875 C41.93910156 103.47205078 41.93910156 103.47205078 42.9609375 102.94140625 C44.32353463 102.22878361 45.68292172 101.50999012 47.0390625 100.78515625 C51.42976011 98.52199745 55.07061209 97.42361927 60 97 C60 96.34 60 95.68 60 95 C68.53243667 90.29162458 77.06329059 85.94733791 86.07421875 82.2265625 C88.44202138 81.23391894 90.72441636 80.18485377 93 79 C93 78.34 93 77.68 93 77 C95.28109013 75.23105139 97.56185547 73.56974556 99.9375 71.9375 C104.15656084 69.19157611 104.15656084 69.19157611 108 66 C113.55276537 65.63341328 119.10736723 65.55729187 124.67089844 65.48510742 C126.54298975 65.45360433 128.41488571 65.40599368 130.28613281 65.34155273 C147.8327335 64.74556585 147.8327335 64.74556585 153.46875 69.84765625 C154.06107422 70.55027588 154.65339844 71.25289551 155.26367188 71.97680664 C157.26449702 74.30819555 159.32543145 75.52145426 162 77 C163.77469378 78.27659885 165.51525854 79.58899612 167.25390625 80.9140625 C169.1546553 82.09618383 170.81494026 82.56968189 173 83 C173 83.66 173 84.32 173 85 C173.515625 85.103125 174.03125 85.20625 174.5625 85.3125 C178.71490202 86.48369031 182.57106741 88.22875493 186.359375 90.2734375 C191.34312601 92.95104286 195.24466419 94.40485419 200.88671875 94.765625 C204.37027056 95.15197086 206.92307062 96.33332992 210 98 C210.33 98.99 210.66 99.98 211 101 C213.00016466 102.20882096 213.00016466 102.20882096 215 103 C215 103.66 215 104.32 215 105 C215.82951172 105.17015625 215.82951172 105.17015625 216.67578125 105.34375 C219.37611002 106.10619577 221.68697609 107.2294236 224.1875 108.5 C225.50814453 109.16515625 225.50814453 109.16515625 226.85546875 109.84375 C229 111 229 111 230 112 C230.04063832 113.66617115 230.042721 115.33388095 230 117 C231.65 117 233.3 117 235 117 C235 118.32 235 119.64 235 121 C236.32 121.33 237.64 121.66 239 122 C239 122.66 239 123.32 239 124 C212.67464818 124.26355335 186.34927098 124.52443381 160.02386284 124.78230286 C147.79503021 124.90214916 135.56620667 125.02280549 123.33740234 125.14550781 C112.65392656 125.25270229 101.97043574 125.35823551 91.28692544 125.46193409 C85.65271624 125.51667584 80.01851667 125.57213992 74.38433456 125.62960815 C44.58856467 125.9328589 14.79731061 126.06032539 -15 126 C-15 125.01 -15 124.02 -15 123 C-14.01 123 -13.02 123 -12 123 C-12.00362549 122.10313477 -12.00725098 121.20626953 -12.01098633 120.28222656 C-12.0348811 109.39986508 -11.94075851 98.52164623 -11.73754883 87.64111328 C-11.7038126 85.69231098 -11.6759423 83.74339941 -11.65356445 81.79443359 C-11.62013849 78.94066276 -11.56795576 76.08777611 -11.51171875 73.234375 C-11.50532883 72.3646405 -11.4989389 71.49490601 -11.49235535 70.59881592 C-11.37517837 65.81003037 -10.90563597 63.83634749 -8 60 C-7.50739346 57.0354388 -7.51131189 54.07838762 -7.48828125 51.078125 C-7.46135445 49.78814606 -7.46135445 49.78814606 -7.43388367 48.47210693 C-7.37979962 45.73145416 -7.34589137 42.99097535 -7.3125 40.25 C-7.27932521 38.38929872 -7.2448354 36.52862039 -7.20898438 34.66796875 C-7.12407431 30.11210472 -7.05725416 25.55629212 -7 21 C-7.66 20.67 -8.32 20.34 -9 20 C-8.34 19.67 -7.68 19.34 -7 19 C-5.86649466 16.98330173 -5.86649466 16.98330173 -5 15 C-4.34 15 -3.68 15 -3 15 C-1.08697693 11.73386305 -0.64325339 9.00554752 -0.375 5.25 C-0.30023438 4.26515625 -0.22546875 3.2803125 -0.1484375 2.265625 C-0.09945313 1.51796875 -0.05046875 0.7703125 0 0 Z " fill="#4DB086" transform="translate(32,19)"/>
<path d="M0 0 C1.87209132 -0.03150309 3.74398728 -0.07911374 5.61523438 -0.14355469 C23.16183506 -0.73954157 23.16183506 -0.73954157 28.79785156 4.36254883 C29.39017578 5.06516846 29.9825 5.76778809 30.59277344 6.49169922 C32.59359858 8.82308813 34.65453301 10.03634684 37.32910156 11.51489258 C39.10379534 12.79149143 40.8443601 14.1038887 42.58300781 15.42895508 C44.48375686 16.61107641 46.14404183 17.08457447 48.32910156 17.51489258 C48.32910156 18.17489258 48.32910156 18.83489258 48.32910156 19.51489258 C48.84472656 19.61801758 49.36035156 19.72114258 49.89160156 19.82739258 C56.72357645 21.75435985 63.03086263 25.3087468 69.32910156 28.51489258 C69.32910156 28.84489258 69.32910156 29.17489258 69.32910156 29.51489258 C61.81866075 29.53805723 54.30822364 29.55582873 46.79775524 29.56670475 C43.31038845 29.57192454 39.82304609 29.57900581 36.33569336 29.59033203 C32.32698328 29.60327012 28.31829889 29.60812826 24.30957031 29.61254883 C23.05637497 29.61771011 21.80317963 29.6228714 20.51200867 29.62818909 C18.77054314 29.62830238 18.77054314 29.62830238 16.99389648 29.62841797 C15.97019455 29.63063858 14.94649261 29.63285919 13.89176941 29.63514709 C11.32910156 29.51489258 11.32910156 29.51489258 8.32910156 28.51489258 C8.67137728 31.48554767 8.67137728 31.48554767 9.32910156 34.51489258 C9.98910156 34.84489258 10.64910156 35.17489258 11.32910156 35.51489258 C11.32910156 34.52489258 11.32910156 33.53489258 11.32910156 32.51489258 C13.63910156 32.51489258 15.94910156 32.51489258 18.32910156 32.51489258 C19.32910156 37.51489258 19.32910156 37.51489258 19.32910156 48.51489258 C4.47910156 48.01989258 4.47910156 48.01989258 -10.67089844 47.51489258 C-10.67089844 37.38989258 -10.67089844 37.38989258 -9.67089844 32.51489258 C-7.69089844 32.51489258 -5.71089844 32.51489258 -3.67089844 32.51489258 C-3.67089844 31.85489258 -3.67089844 31.19489258 -3.67089844 30.51489258 C-23.47089844 30.51489258 -43.27089844 30.51489258 -63.67089844 30.51489258 C-60.47427073 27.31826487 -59.13550168 25.99919559 -55.33496094 24.26098633 C-54.51769531 23.88135742 -53.70042969 23.50172852 -52.85839844 23.1105957 C-52.01277344 22.72838867 -51.16714844 22.34618164 -50.29589844 21.95239258 C-48.62119612 21.18074128 -46.94671196 20.40861632 -45.27246094 19.63598633 C-44.48000977 19.27359863 -43.68755859 18.91121094 -42.87109375 18.5378418 C-40.9831002 17.6600463 -39.11739606 16.73458646 -37.25683594 15.80004883 C-34.67089844 14.51489258 -34.67089844 14.51489258 -31.67089844 13.51489258 C-31.67089844 12.85489258 -31.67089844 12.19489258 -31.67089844 11.51489258 C-29.3898083 9.74594397 -27.10904297 8.08463814 -24.73339844 6.45239258 C-15.96401821 0.3404003 -10.64024377 0.13805262 0 0 Z " fill="#0B8B4E" transform="translate(156.6708984375,84.485107421875)"/>
<path d="M0 0 C9.00618123 0.06133172 18.01204864 0.13852418 27.01791477 0.23571491 C31.20015583 0.28035637 35.38230087 0.31962597 39.56469727 0.34643555 C43.60437145 0.37253098 47.64367493 0.41297685 51.68311882 0.46318626 C53.22075715 0.47981295 54.75845953 0.49135331 56.296175 0.49761391 C58.45768812 0.50730122 60.6182618 0.535413 62.77954102 0.56762695 C64.62153831 0.58428154 64.62153831 0.58428154 66.50074768 0.60127258 C70.66237095 1.07547483 73.31021789 2.0307421 77 4 C77.33 4.99 77.66 5.98 78 7 C80.00016466 8.20882096 80.00016466 8.20882096 82 9 C81.34 9.33 80.68 9.66 80 10 C78.74576396 9.40431272 77.52102518 8.74617996 76.3125 8.0625 C69.82504529 4.96766505 63.01124746 5.66745071 56 6 C56.3609375 6.77085938 56.721875 7.54171875 57.09375 8.3359375 C57.5578125 9.33882812 58.021875 10.34171875 58.5 11.375 C58.9640625 12.37273437 59.428125 13.37046875 59.90625 14.3984375 C61 17 61 17 61 19 C72.22 19 83.44 19 95 19 C94.67 20.32 94.34 21.64 94 23 C28 23 -38 23 -106 23 C-106 22.34 -106 21.68 -106 21 C-95.11 21 -84.22 21 -73 21 C-72.34 19.35 -71.68 17.7 -71 16 C-69.36125498 12.32027255 -67.67686549 8.66262725 -66 5 C-70.62 5 -75.24 5 -80 5 C-78 3 -78 3 -75.375 2.875 C-74.59125 2.91625 -73.8075 2.9575 -73 3 C-72.67 2.34 -72.34 1.68 -72 1 C-42.3 1.495 -42.3 1.495 -12 2 C-12 2.66 -12 3.32 -12 4 C-13.98 4 -15.96 4 -18 4 C-18.33 8.95 -18.66 13.9 -19 19 C-9.43 19 0.14 19 10 19 C10 14.05 10 9.1 10 4 C7.69 4 5.38 4 3 4 C3 4.99 3 5.98 3 7 C2.01 6.67 1.02 6.34 0 6 C0 4.02 0 2.04 0 0 Z " fill="#B9FDE8" transform="translate(165,113)"/>
<path d="M0 0 C0.33 0 0.66 0 1 0 C1.03738281 0.83144531 1.07476562 1.66289062 1.11328125 2.51953125 C1.17902344 3.60621094 1.24476562 4.69289063 1.3125 5.8125 C1.39951172 7.43091797 1.39951172 7.43091797 1.48828125 9.08203125 C2.05983077 12.34117243 2.69149023 12.83391756 5 15 C6.40128773 19.67852953 6.03248247 24.41460363 5.87890625 29.23828125 C5.85529526 30.11904831 5.83168427 30.99981537 5.80735779 31.90727234 C5.73103294 34.70919169 5.64687514 37.51081266 5.5625 40.3125 C5.50924807 42.21678247 5.4565079 44.12107933 5.40429688 46.02539062 C5.27546017 50.68378125 5.13959995 55.34192 5 60 C3.02 60.99 1.04 61.98 -1 63 C0.32 63.33 1.64 63.66 3 64 C3.18992642 92.97108414 3.18992642 92.97108414 2.5625 105.9375 C2.52326416 106.7627417 2.48402832 107.5879834 2.44360352 108.43823242 C2.19495525 113.01078343 1.71669985 117.47696146 1 122 C-2.96 121.505 -2.96 121.505 -7 121 C-7 120.34 -7 119.68 -7 119 C-4.69 119 -2.38 119 0 119 C0 118.34 0 117.68 0 117 C-2.31 117 -4.62 117 -7 117 C-7 116.34 -7 115.68 -7 115 C-4.69 115 -2.38 115 0 115 C0 114.34 0 113.68 0 113 C-2.31 113 -4.62 113 -7 113 C-7 112.67 -7 112.34 -7 112 C-4.69 112 -2.38 112 0 112 C0 111.34 0 110.68 0 110 C-2.31 110 -4.62 110 -7 110 C-7.33 96.47 -7.66 82.94 -8 69 C-9.87824891 70.87824891 -9.39102397 74.03935276 -9.5625 76.5625 C-9.64628906 77.76003906 -9.73007812 78.95757812 -9.81640625 80.19140625 C-9.87699219 81.11824219 -9.93757813 82.04507813 -10 83 C-10.33 83 -10.66 83 -11 83 C-11.08733513 79.91684615 -11.14050127 76.83401173 -11.1875 73.75 C-11.21263672 72.87730469 -11.23777344 72.00460938 -11.26367188 71.10546875 C-11.27333984 70.26113281 -11.28300781 69.41679688 -11.29296875 68.546875 C-11.3086792 67.77182617 -11.32438965 66.99677734 -11.34057617 66.19824219 C-11 64 -11 64 -9.51367188 62.2734375 C-7.16380692 58.74409194 -7.52015393 55.23026314 -7.48828125 51.078125 C-7.46135445 49.78814606 -7.46135445 49.78814606 -7.43388367 48.47210693 C-7.37979962 45.73145416 -7.34589137 42.99097535 -7.3125 40.25 C-7.27932521 38.38929872 -7.2448354 36.52862039 -7.20898438 34.66796875 C-7.12407431 30.11210472 -7.05725416 25.55629212 -7 21 C-7.66 20.67 -8.32 20.34 -9 20 C-8.34 19.67 -7.68 19.34 -7 19 C-5.86649466 16.98330173 -5.86649466 16.98330173 -5 15 C-4.34 15 -3.68 15 -3 15 C-1.08697693 11.73386305 -0.64325339 9.00554752 -0.375 5.25 C-0.30023438 4.26515625 -0.22546875 3.2803125 -0.1484375 2.265625 C-0.09945313 1.51796875 -0.05046875 0.7703125 0 0 Z " fill="#248A5D" transform="translate(32,19)"/>
<path d="M0 0 C0.33 0 0.66 0 1 0 C1.01981934 0.80743652 1.03963867 1.61487305 1.06005859 2.44677734 C1.15505899 6.08985875 1.26483912 9.73234686 1.375 13.375 C1.4059375 14.64601563 1.436875 15.91703125 1.46875 17.2265625 C1.50742187 18.43828125 1.54609375 19.65 1.5859375 20.8984375 C1.63306885 22.57945557 1.63306885 22.57945557 1.68115234 24.29443359 C1.73411203 27.14710412 1.73411203 27.14710412 4 29 C4.1887479 31.67452931 4.25529162 34.24339686 4.23046875 36.91796875 C4.23032524 38.120513 4.23032524 38.120513 4.23017883 39.34735107 C4.22644791 41.96088472 4.20751895 44.5740443 4.1875 47.1875 C4.18066071 48.96883015 4.17415061 50.75016159 4.16796875 52.53149414 C4.10411067 65.37247267 3.76618787 78.1800351 3 91 C4.60251114 90.8934182 4.60251114 90.8934182 6.23739624 90.78468323 C17.80816812 90.05528357 29.32311965 89.86689106 40.9140625 89.90234375 C42.74921632 89.90421539 44.58437064 89.90563575 46.41952515 89.90663147 C51.1835678 89.91039803 55.94757858 89.92017612 60.71160889 89.93133545 C65.59940154 89.94167771 70.48719949 89.94615617 75.375 89.95117188 C84.91668045 89.96180542 94.45833755 89.97880869 104 90 C100.45321087 92.36452609 98.89784982 92.27013644 94.68823242 92.31884766 C92.71678253 92.34864464 92.71678253 92.34864464 90.70550537 92.37904358 C89.25549514 92.3909598 87.80548284 92.4026253 86.35546875 92.4140625 C84.84677137 92.43288171 83.33808384 92.45250539 81.82940674 92.47288513 C77.78463549 92.52487241 73.73983152 92.56434177 69.6948967 92.60109329 C66.36259122 92.63286507 63.03038665 92.6718589 59.69815922 92.71086216 C33.79916826 93.01253889 7.90060495 93.13413587 -18 93 C-18 92.01 -18 91.02 -18 90 C-17.01 90 -16.02 90 -15 90 C-15.00942627 89.06978027 -15.01885254 88.13956055 -15.02856445 87.18115234 C-15.08479115 77.13325671 -14.82446628 67.12943488 -14.31030273 57.09472656 C-14.2272036 55.42349227 -14.15089784 53.75190864 -14.08081055 52.08007812 C-13.97801091 49.62801135 -13.85654494 47.17752916 -13.73046875 44.7265625 C-13.70220505 43.97774811 -13.67394135 43.22893372 -13.64482117 42.45742798 C-13.52416992 40.36962891 -13.52416992 40.36962891 -13 37 C-12.01 36.34 -11.02 35.68 -10 35 C-10 45.56 -10 56.12 -10 67 C-7.69 67 -5.38 67 -3 67 C-3 67.33 -3 67.66 -3 68 C-5.31 68 -7.62 68 -10 68 C-10 69.98 -10 71.96 -10 74 C-7.69 74 -5.38 74 -3 74 C-3 74.33 -3 74.66 -3 75 C-5.31 75 -7.62 75 -10 75 C-10 75.66 -10 76.32 -10 77 C-7.69 77 -5.38 77 -3 77 C-3 78.65 -3 80.3 -3 82 C-5.31 82 -7.62 82 -10 82 C-10 82.66 -10 83.32 -10 84 C-7.69 84 -5.38 84 -3 84 C-3 84.66 -3 85.32 -3 86 C-5.31 86 -7.62 86 -10 86 C-10 86.66 -10 87.32 -10 88 C-7.69 88 -5.38 88 -3 88 C-1.78971408 82.12146838 -1.67752604 76.23595273 -1.46484375 70.2578125 C-1.40037804 68.57254959 -1.40037804 68.57254959 -1.33460999 66.85324097 C-1.19864476 63.27728559 -1.06800095 59.70115855 -0.9375 56.125 C-0.84605443 53.69529925 -0.75426152 51.26561155 -0.66210938 48.8359375 C-0.43738091 42.8907703 -0.21701704 36.94545342 0 31 C-1.65 31 -3.3 31 -5 31 C-4.34 30.01 -3.68 29.02 -3 28 C-2.01 28 -1.02 28 0 28 C0 18.76 0 9.52 0 0 Z " fill="#2A8D62" transform="translate(35,52)"/>
<path d="M0 0 C2.06298828 -0.34057617 2.06298828 -0.34057617 4.5703125 -0.29296875 C5.46621094 -0.28330078 6.36210938 -0.27363281 7.28515625 -0.26367188 C8.69087891 -0.2259668 8.69087891 -0.2259668 10.125 -0.1875 C11.06988281 -0.17396484 12.01476562 -0.16042969 12.98828125 -0.14648438 C15.32608779 -0.11106306 17.66276237 -0.06167271 20 0 C20.33 0.66 20.66 1.32 21 2 C21.33 1.34 21.66 0.68 22 0 C29.26 0 36.52 0 44 0 C44 8 44 8 43 15 C34.75 15 26.5 15 18 15 C18.33 12.69 18.66 10.38 19 8 C18.01 10.31 17.02 12.62 16 15 C8.41 15 0.82 15 -7 15 C-2.25 3.375 -2.25 3.375 0 0 Z " fill="#0F8850" transform="translate(101,118)"/>
<path d="M0 0 C0 0.66 0 1.32 0 2 C1.98 2.66 3.96 3.32 6 4 C6.12375 4.969375 6.2475 5.93875 6.375 6.9375 C6.58125 7.948125 6.7875 8.95875 7 10 C7.66 10.33 8.32 10.66 9 11 C9 10.01 9 9.02 9 8 C11.31 8 13.62 8 16 8 C17 13 17 13 17 24 C2.15 23.505 2.15 23.505 -13 23 C-13 12.875 -13 12.875 -12 8 C-10.02 8 -8.04 8 -6 8 C-6 7.34 -6 6.68 -6 6 C-21.51 6 -37.02 6 -53 6 C-53 5.67 -53 5.34 -53 5 C-49.37 5 -45.74 5 -42 5 C-42 4.34 -42 3.68 -42 3 C-37.4793335 2.97531143 -32.9587061 2.95714551 -28.43798828 2.94506836 C-26.89956987 2.94003448 -25.36115625 2.93320692 -23.82275391 2.92456055 C-21.61359474 2.91245361 -19.40449874 2.90676231 -17.1953125 2.90234375 C-16.16085495 2.89460182 -16.16085495 2.89460182 -15.10549927 2.88670349 C-10.22774341 2.88612829 -10.22774341 2.88612829 -8 4 C-8 3.34 -8 2.68 -8 2 C-4.91190305 0.23537317 -3.76687864 0 0 0 Z " fill="#1B925B" transform="translate(159,109)"/>
<path d="M0 0 C-1.375 1.5 -1.375 1.5 -3 3 C-3.66 3 -4.32 3 -5 3 C-5 3.66 -5 4.32 -5 5 C-5.66 5 -6.32 5 -7 5 C-7 5.66 -7 6.32 -7 7 C-7.66 7 -8.32 7 -9 7 C-9 5.68 -9 4.36 -9 3 C-9.66 3 -10.32 3 -11 3 C-11 3.66 -11 4.32 -11 5 C-11.66 5 -12.32 5 -13 5 C-13 4.34 -13 3.68 -13 3 C-24.22 3 -35.44 3 -47 3 C-47 3.66 -47 4.32 -47 5 C-47.66 5 -48.32 5 -49 5 C-49 4.34 -49 3.68 -49 3 C-53.62 3 -58.24 3 -63 3 C-63 3.66 -63 4.32 -63 5 C-63.66 5 -64.32 5 -65 5 C-65 4.34 -65 3.68 -65 3 C-68.10451549 3.13894148 -71.20850835 3.287343 -74.3125 3.4375 C-75.63411133 3.49647461 -75.63411133 3.49647461 -76.98242188 3.55664062 C-77.82998047 3.59853516 -78.67753906 3.64042969 -79.55078125 3.68359375 C-80.33106689 3.72025146 -81.11135254 3.75690918 -81.9152832 3.79467773 C-84.19329101 3.94125263 -84.19329101 3.94125263 -87 5 C-87 4.34 -87 3.68 -87 3 C-100.2 3 -113.4 3 -127 3 C-127 3.66 -127 4.32 -127 5 C-127.66 5 -128.32 5 -129 5 C-129 4.34 -129 3.68 -129 3 C-170.25 3 -211.5 3 -254 3 C-254 2.67 -254 2.34 -254 2 C-224.83664718 1.31292087 -195.67588361 0.76442336 -166.50587082 0.46757126 C-163.50163744 0.43687819 -160.49741632 0.40513156 -157.49319458 0.37332153 C-104.99671049 -0.17474483 -52.49858684 -0.09919781 0 0 Z " fill="#C9F3E3" transform="translate(271,143)"/>
<path d="M0 0 C0.66 0.33 1.32 0.66 2 1 C2.33333333 3.33333333 2.66666667 5.66666667 3 8 C3.66 8.33 4.32 8.66 5 9 C5.66666667 11 6.33333333 13 7 15 C7.556875 15.680625 8.11375 16.36125 8.6875 17.0625 C10 19 10 19 9.6875 21.75 C9.460625 22.4925 9.23375 23.235 9 24 C8.34 24 7.68 24 7 24 C7.09420066 29.24728335 7.2004352 34.49414103 7.31738281 39.7409668 C7.35544856 41.52247613 7.3903387 43.30405648 7.421875 45.08569336 C7.46801659 47.6602501 7.5259246 50.23432729 7.5859375 52.80859375 C7.59748871 53.59334579 7.60903992 54.37809784 7.62094116 55.18663025 C7.72212667 59.05745037 8.06720175 62.58248827 9.01147461 66.3425293 C10.32409955 71.79442872 10.2691267 77.1274502 10.23046875 82.7109375 C10.22978142 84.34586655 10.22978142 84.34586655 10.2290802 86.01382446 C10.22607584 88.30138243 10.21824451 90.58893869 10.20581055 92.87646484 C10.1874468 96.38516433 10.18530189 99.89360099 10.18554688 103.40234375 C10.18063492 105.63021062 10.17480801 107.85807571 10.16796875 110.0859375 C10.16685593 111.13590912 10.1657431 112.18588074 10.16459656 113.26766968 C10.15821671 114.23943146 10.15183685 115.21119324 10.14526367 116.21240234 C10.13954597 117.49405777 10.13954597 117.49405777 10.13371277 118.80160522 C10 121 10 121 9 124 C11.97 124 14.94 124 18 124 C18.33 122.68 18.66 121.36 19 120 C19 121.98 19 123.96 19 126 C14.71 126 10.42 126 6 126 C6.00523682 124.15736572 6.01047363 122.31473145 6.01586914 120.41625977 C6.03196706 114.34136832 6.04347241 108.26648191 6.05181217 102.19157505 C6.05704008 98.50685502 6.06413605 94.82215797 6.07543945 91.13745117 C6.08627162 87.58429169 6.09227753 84.03115437 6.09487724 80.47797966 C6.0967309 79.11954334 6.10035038 77.76110829 6.10573006 76.40268135 C6.11294475 74.50617777 6.11340809 72.60965207 6.11352539 70.71313477 C6.11685631 69.09097801 6.11685631 69.09097801 6.12025452 67.43605042 C6.2758197 65.05202528 6.2758197 65.05202528 5 64 C4.93599283 60.95593358 4.93389591 57.93390028 4.97265625 54.890625 C4.98530856 53.00260604 4.99766907 51.1145851 5.00976562 49.2265625 C5.03454859 46.23984692 5.06246376 43.25323276 5.09594727 40.26660156 C5.12620639 37.39126953 5.14394796 34.51606581 5.16015625 31.640625 C5.17361588 30.75086975 5.1870755 29.8611145 5.20094299 28.94439697 C5.22245055 23.61475309 5.09836078 19.34047933 1.375 15.1875 C0.92125 14.795625 0.4675 14.40375 0 14 C-3.92018777 17.61069926 -6.7250492 20.42666068 -7.1479187 25.9223938 C-7.18178247 28.24463503 -7.14608093 30.55711002 -7.08984375 32.87890625 C-7.06943075 34.6217421 -7.04925563 36.36458076 -7.02929688 38.10742188 C-6.98573716 40.84183963 -6.93723364 43.57606493 -6.88354492 46.31030273 C-6.83528095 48.95816393 -6.80540792 51.60576534 -6.77734375 54.25390625 C-6.75558578 55.07065323 -6.73382782 55.88740021 -6.71141052 56.72889709 C-6.66046391 62.55681311 -6.66046391 62.55681311 -8.48193359 64.93432617 C-11.06318418 68.44670334 -10.48226062 72.55592527 -10.51171875 76.796875 C-10.53864555 78.22003021 -10.53864555 78.22003021 -10.56611633 79.67193604 C-10.62023506 82.69791235 -10.65412026 85.72373078 -10.6875 88.75 C-10.72067167 90.80340739 -10.75516119 92.85679395 -10.79101562 94.91015625 C-10.87596257 99.93999028 -10.94276651 104.96977736 -11 110 C-11.33 110 -11.66 110 -12 110 C-12 94.82 -12 79.64 -12 64 C-11.01 64 -10.02 64 -9 64 C-9.11952345 59.62567239 -9.24383386 55.25151295 -9.37231445 50.87744141 C-9.4152523 49.39375369 -9.45695012 47.91002949 -9.49731445 46.42626953 C-9.55603037 44.27625221 -9.61856973 42.12639793 -9.68359375 39.9765625 C-9.70424896 39.27936096 -9.72490417 38.58215942 -9.7461853 37.86383057 C-9.90470239 33.19406273 -10.29604413 28.61243809 -10.99633789 23.99365234 C-11.00085408 21.53503622 -10.23260444 20.09628209 -9 18 C-8.34 18 -7.68 18 -7 18 C-7 17.34 -7 16.68 -7 16 C-6.01 16 -5.02 16 -4 16 C-3.61781233 14.34385343 -3.28604898 12.67542976 -3 11 C-3.33 10.67 -3.66 10.34 -4 10 C-4.3125 6.625 -4.3125 6.625 -4 3 C-2 1.0625 -2 1.0625 0 0 Z " fill="#D3F7E9" transform="translate(32,16)"/>
<path d="M0 0 C2 2 2 2 2.24291992 4.37231445 C2.23675659 5.85284302 2.23675659 5.85284302 2.23046875 7.36328125 C2.22926025 8.46833008 2.22805176 9.57337891 2.22680664 10.71191406 C2.21383545 11.90010742 2.20086426 13.08830078 2.1875 14.3125 C2.18032959 15.52260742 2.17315918 16.73271484 2.16577148 17.97949219 C1.92684049 44.88843117 1.92684049 44.88843117 0 57 C-3.96 56.505 -3.96 56.505 -8 56 C-8 55.34 -8 54.68 -8 54 C-5.69 54 -3.38 54 -1 54 C-1 53.34 -1 52.68 -1 52 C-3.31 52 -5.62 52 -8 52 C-8 51.34 -8 50.68 -8 50 C-5.69 50 -3.38 50 -1 50 C-1 49.34 -1 48.68 -1 48 C-3.31 48 -5.62 48 -8 48 C-8 47.67 -8 47.34 -8 47 C-5.69 47 -3.38 47 -1 47 C-1 46.34 -1 45.68 -1 45 C-3.31 45 -5.62 45 -8 45 C-8.07409532 39.07351426 -8.12857616 33.14729747 -8.16479492 27.22045898 C-8.17989179 25.20380966 -8.20037115 23.18719321 -8.22631836 21.1706543 C-8.26266211 18.27384329 -8.2797172 15.37746594 -8.29296875 12.48046875 C-8.30845261 11.57725388 -8.32393646 10.674039 -8.33988953 9.74345398 C-8.34011612 8.90280899 -8.34034271 8.062164 -8.34057617 7.19604492 C-8.34723801 6.45658127 -8.35389984 5.71711761 -8.36076355 4.95524597 C-7.49382301 0.25665043 -4.32481923 -0.554464 0 0 Z " fill="#6AD4AB" transform="translate(33,84)"/>
<path d="M0 0 C-1.14149386 3.57804579 -2.35394873 6.96685778 -4.0625 10.3125 C-4.40410156 10.98925781 -4.74570313 11.66601562 -5.09765625 12.36328125 C-6 14 -6 14 -7 15 C-9.52094076 15.08847743 -12.01430893 15.11527301 -14.53515625 15.09765625 C-15.66503212 15.09553383 -15.66503212 15.09553383 -16.81773376 15.09336853 C-19.2326956 15.08775376 -21.64756601 15.07519883 -24.0625 15.0625 C-25.69596221 15.0574869 -27.32942586 15.05292366 -28.96289062 15.04882812 C-32.97529585 15.03777954 -36.98763241 15.02050506 -41 15 C-40.34 14.67 -39.68 14.34 -39 14 C-38.6596875 13.071875 -38.6596875 13.071875 -38.3125 12.125 C-36.64251139 9.42120892 -34.77372961 8.98326429 -31.91040039 7.82519531 C-29.73953218 6.92993979 -29.73953218 6.92993979 -26.81640625 5.17578125 C-17.64567199 -0.07564761 -10.45711232 -0.85558192 0 0 Z " fill="#118751" transform="translate(99,118)"/>
<path d="M0 0 C0.99 0.33 1.98 0.66 3 1 C2.9685791 2.55895996 2.9685791 2.55895996 2.93652344 4.14941406 C2.86404326 8.01076442 2.81817169 11.87205483 2.78027344 15.73388672 C2.76017607 17.40423702 2.73289317 19.07451713 2.69824219 20.74462891 C2.64963881 23.1476372 2.62701344 25.54971434 2.609375 27.953125 C2.58872986 28.69806213 2.56808472 29.44299927 2.54681396 30.21051025 C2.54526271 33.80682789 2.65155803 35.59071095 5.02441406 38.37792969 C5.67635742 38.91321289 6.32830078 39.44849609 7 40 C7 40.66 7 41.32 7 42 C7.66 42 8.32 42 9 42 C10.70993434 43.6222454 12.37347684 45.29413425 14 47 C14.598125 47.556875 15.19625 48.11375 15.8125 48.6875 C17 50 17 50 17 52 C5.78 52 -5.44 52 -17 52 C-15.7622343 48.2867029 -14.25608211 47.37219818 -11.1875 45 C-9.87845703 43.9790625 -9.87845703 43.9790625 -8.54296875 42.9375 C-6 41 -6 41 -3.72265625 39.609375 C-1.23545621 37.28573233 -1.39773972 35.61518245 -1.25 32.25 C-1.19328125 31.02410156 -1.1365625 29.79820313 -1.078125 28.53515625 C-0.92512877 21.87829026 -0.95927272 15.2153628 -1.03613281 8.55761719 C-1.04483398 7.5937207 -1.05353516 6.62982422 -1.0625 5.63671875 C-1.07410156 4.76748779 -1.08570313 3.89825684 -1.09765625 3.00268555 C-1 1 -1 1 0 0 Z " fill="#238259" transform="translate(160,32)"/>
<path d="M0 0 C12.30047119 -1.01830445 20.25431391 1.10208366 31 7 C32.95493406 7.96524869 34.9128194 8.92456877 36.875 9.875 C40.86184211 11.86184211 40.86184211 11.86184211 42 13 C42.04063832 14.66617115 42.042721 16.33388095 42 18 C41.34 18 40.68 18 40 18 C40 16.68 40 15.36 40 14 C28.78 14 17.56 14 6 14 C0 1 0 1 0 0 Z " fill="#118D54" transform="translate(220,118)"/>
<path d="M0 0 C6.93 0 13.86 0 21 0 C24 10 24 10 24 15 C21.14839609 15.81434143 18.63373869 16.11881242 15.671875 16.09765625 C14.87265625 16.09443359 14.0734375 16.09121094 13.25 16.08789062 C12.425 16.07951172 11.6 16.07113281 10.75 16.0625 C9.90953125 16.05798828 9.0690625 16.05347656 8.203125 16.04882812 C6.13538599 16.03707961 4.06768376 16.01914522 2 16 C1.34 10.72 0.68 5.44 0 0 Z " fill="#0D8A50" transform="translate(176,117)"/>
<path d="M0 0 C6.27 0 12.54 0 19 0 C25 12.75 25 12.75 25 15 C17.74 15 10.48 15 3 15 C0 4.5 0 4.5 0 0 Z " fill="#0F8C52" transform="translate(199,117)"/>
<path d="M0 0 C0.33 0 0.66 0 1 0 C1.33 10.89 1.66 21.78 2 33 C2.86296454 28.68517731 3.30735458 24.55843382 3.5625 20.1875 C3.62727539 19.14819336 3.62727539 19.14819336 3.69335938 18.08789062 C3.79861453 16.39211314 3.89972863 14.69607948 4 13 C5.65 13 7.3 13 9 13 C8.98839844 13.78246094 8.97679687 14.56492187 8.96484375 15.37109375 C8.95582031 16.38300781 8.94679688 17.39492188 8.9375 18.4375 C8.92589844 19.44683594 8.91429687 20.45617187 8.90234375 21.49609375 C8.71387324 23.94021067 8.71387324 23.94021067 10 25 C10.07313567 27.53049402 10.09247527 30.03304837 10.0625 32.5625 C10.05798828 33.27341797 10.05347656 33.98433594 10.04882812 34.71679688 C10.03700864 36.47790013 10.01907263 38.23896036 10 40 C8.68 40.66 7.36 41.32 6 42 C7.32 42.33 8.64 42.66 10 43 C9.67 43.99 9.34 44.98 9 46 C8.67 45.67 8.34 45.34 8 45 C5.66702567 44.95907063 3.33294775 44.95758277 1 45 C1 45.66 1 46.32 1 47 C0.01 47.66 -0.98 48.32 -2 49 C-2.58592634 52.11610554 -2.58592634 52.11610554 -2.6875 55.625 C-2.75324219 56.81351563 -2.81898437 58.00203125 -2.88671875 59.2265625 C-2.94279297 60.59941406 -2.94279297 60.59941406 -3 62 C-3.33 62 -3.66 62 -4 62 C-4.08733513 58.91684615 -4.14050127 55.83401173 -4.1875 52.75 C-4.21263672 51.87730469 -4.23777344 51.00460938 -4.26367188 50.10546875 C-4.27333984 49.26113281 -4.28300781 48.41679688 -4.29296875 47.546875 C-4.3086792 46.77182617 -4.32438965 45.99677734 -4.34057617 45.19824219 C-4 43 -4 43 -2.51367188 41.2734375 C-0.16380692 37.74409194 -0.52015393 34.23026314 -0.48828125 30.078125 C-0.46135445 28.78814606 -0.46135445 28.78814606 -0.43388367 27.47210693 C-0.37979962 24.73145416 -0.34589137 21.99097535 -0.3125 19.25 C-0.27932521 17.38929872 -0.2448354 15.52862039 -0.20898438 13.66796875 C-0.12407431 9.11210472 -0.05725416 4.55629212 0 0 Z " fill="#2B9165" transform="translate(25,40)"/>
<path d="M0 0 C30.195 0.495 30.195 0.495 61 1 C61 1.66 61 2.32 61 3 C59.02 3 57.04 3 55 3 C54.67 7.95 54.34 12.9 54 18 C56.31 18 58.62 18 61 18 C61 18.33 61 18.66 61 19 C54.84765625 19.09765625 54.84765625 19.09765625 53 19 C52.67 18.67 52.34 18.34 52 18 C52.17931901 13.32035241 52.62145586 8.66871105 53 4 C45.74 4 38.48 4 31 4 C30.34 5.32 29.68 6.64 29 8 C29 6.68 29 5.36 29 4 C19.1 4.495 19.1 4.495 9 5 C7.02 9.29 5.04 13.58 3 18 C10.26 18.33 17.52 18.66 25 19 C25 19.33 25 19.66 25 20 C16.75 20 8.5 20 0 20 C2.16925333 14.57686668 4.56875006 9.31036171 7 4 C2.38 4 -2.24 4 -7 4 C-5 2 -5 2 -2.375 1.875 C-1.59125 1.91625 -0.8075 1.9575 0 2 C0 1.34 0 0.68 0 0 Z " fill="#9AEBCB" transform="translate(92,114)"/>
<path d="M0 0 C5.28 0 10.56 0 16 0 C16 0.33 16 0.66 16 1 C11.38 1.33 6.76 1.66 2 2 C2.825 3.77375 3.65 5.5475 4.5 7.375 C7 12.75 7 12.75 7 15 C18.22 15 29.44 15 41 15 C40.67 16.32 40.34 17.64 40 19 C2.38 19 -35.24 19 -74 19 C-74 18.67 -74 18.34 -74 18 C-49.25 18 -24.5 18 1 18 C1 17.34 1 16.68 1 16 C2.32 16 3.64 16 5 16 C4.35731563 14.35293447 3.71076198 12.70737825 3.0625 11.0625 C2.52302734 9.68771484 2.52302734 9.68771484 1.97265625 8.28515625 C1.2003782 6.07581467 1.2003782 6.07581467 0 5 C0 3.35 0 1.7 0 0 Z " fill="#A5E8D5" transform="translate(219,117)"/>
<path d="M0 0 C1.39810913 -0.016073 1.39810913 -0.016073 2.82446289 -0.0324707 C6.63309922 0.18821802 9.07416509 1.15387406 12.33984375 3.11328125 C12.83484375 4.59828125 12.83484375 4.59828125 13.33984375 6.11328125 C15.34000841 7.32210221 15.34000841 7.32210221 17.33984375 8.11328125 C16.67984375 8.44328125 16.01984375 8.77328125 15.33984375 9.11328125 C13.9367308 8.37258214 12.56720197 7.56803324 11.21484375 6.73828125 C4.25474557 3.04328795 -2.95311335 3.21846422 -10.66015625 3.11328125 C-10.99015625 3.77328125 -11.32015625 4.43328125 -11.66015625 5.11328125 C-11.66015625 4.45328125 -11.66015625 3.79328125 -11.66015625 3.11328125 C-17.93015625 3.11328125 -24.20015625 3.11328125 -30.66015625 3.11328125 C-30.16515625 4.84578125 -29.67015625 6.57828125 -29.16015625 8.36328125 C-28.15390641 11.88515571 -27.66015625 14.4055841 -27.66015625 18.11328125 C-20.40015625 18.11328125 -13.14015625 18.11328125 -5.66015625 18.11328125 C-6.98015625 18.44328125 -8.30015625 18.77328125 -9.66015625 19.11328125 C-9.66015625 19.77328125 -9.66015625 20.43328125 -9.66015625 21.11328125 C-23.52015625 21.11328125 -37.38015625 21.11328125 -51.66015625 21.11328125 C-51.66015625 20.45328125 -51.66015625 19.79328125 -51.66015625 19.11328125 C-44.40015625 18.78328125 -37.14015625 18.45328125 -29.66015625 18.11328125 C-30.15515625 16.19515625 -30.65015625 14.27703125 -31.16015625 12.30078125 C-31.9878946 9.09329514 -32.66015625 6.42872424 -32.66015625 3.11328125 C-33.32015625 3.11328125 -33.98015625 3.11328125 -34.66015625 3.11328125 C-34.66015625 2.45328125 -34.66015625 1.79328125 -34.66015625 1.11328125 C-30.24362394 0.9429267 -25.82691366 0.77768771 -21.41015625 0.61328125 C-19.55777344 0.54173828 -19.55777344 0.54173828 -17.66796875 0.46875 C-11.77957612 0.25180922 -5.89220198 0.06592234 0 0 Z " fill="#A8F1D9" transform="translate(229.66015625,113.88671875)"/>
<path d="M0 0 C0.33 0 0.66 0 1 0 C1.33 6.27 1.66 12.54 2 19 C35.33 19 68.66 19 103 19 C99.45321087 21.36452609 97.89784982 21.27013644 93.68823242 21.31884766 C92.3739325 21.33871231 91.05963257 21.35857697 89.70550537 21.37904358 C88.25549514 21.3909598 86.80548284 21.4026253 85.35546875 21.4140625 C83.84677137 21.43288171 82.33808384 21.45250539 80.82940674 21.47288513 C76.78463549 21.52487241 72.73983152 21.56434177 68.6948967 21.60109329 C65.36259122 21.63286507 62.03038665 21.6718589 58.69815922 21.71086216 C32.79916826 22.01253889 6.90060495 22.13413587 -19 22 C-19 21.01 -19 20.02 -19 19 C-18.49984375 19.15339844 -17.9996875 19.30679688 -17.484375 19.46484375 C-14.09625138 20.19467541 -10.70050411 20.3633179 -7.25 20.5625 C-4.8575 20.706875 -2.465 20.85125 0 21 C0 14.07 0 7.14 0 0 Z " fill="#26845B" transform="translate(36,123)"/>
<path d="M0 0 C0.33 0 0.66 0 1 0 C1 19.8 1 39.6 1 60 C0.01 60 -0.98 60 -2 60 C-2 61.32 -2 62.64 -2 64 C18.79 64 39.58 64 61 64 C60.67 64.66 60.34 65.32 60 66 C39.21 66 18.42 66 -3 66 C-3.66 64.68 -4.32 63.36 -5 62 C-5.66 61.67 -6.32 61.34 -7 61 C-6.34 60.01 -5.68 59.02 -5 58 C-4.01 58 -3.02 58 -2 58 C-1.9845388 56.9321804 -1.9845388 56.9321804 -1.96876526 55.8427887 C-1.87095102 49.14717174 -1.76845996 42.45164482 -1.66066074 35.75618076 C-1.6054012 32.3136426 -1.55197653 28.871096 -1.50268555 25.4284668 C-1.44599199 21.47435474 -1.38142505 17.52039056 -1.31640625 13.56640625 C-1.29133751 11.70394005 -1.29133751 11.70394005 -1.26576233 9.80384827 C-1.24581711 8.66274094 -1.22587189 7.52163361 -1.20532227 6.34594727 C-1.18200584 4.83037987 -1.18200584 4.83037987 -1.15821838 3.28419495 C-1 1 -1 1 0 0 Z " fill="#E1FCF1" transform="translate(19,82)"/>
<path d="M0 0 C1.90604871 -0.01655599 3.81203543 -0.04384142 5.71777344 -0.08203125 C8.46183571 -0.13676495 11.20444017 -0.15866882 13.94897461 -0.17333984 C14.80014359 -0.19600922 15.65131256 -0.21867859 16.52827454 -0.24203491 C22.47536996 -0.22077637 22.47536996 -0.22077637 25.62353516 2.8828125 C26.09573486 3.6970166 26.56793457 4.5112207 27.05444336 5.35009766 C26.06444336 5.35009766 25.07444336 5.35009766 24.05444336 5.35009766 C24.05444336 4.69009766 24.05444336 4.03009766 24.05444336 3.35009766 C19.0553486 3.44411014 14.05671109 3.55030689 9.05810547 3.66748047 C7.35993412 3.70560895 5.66168644 3.74048911 3.96337891 3.77197266 C1.51298869 3.81797588 -0.93688332 3.87590916 -3.38696289 3.93603516 C-4.51395348 3.95336197 -4.51395348 3.95336197 -5.66371155 3.97103882 C-10.3609208 4.10062742 -14.49685684 4.67774926 -18.94555664 6.35009766 C-19.93555664 7.83509766 -19.93555664 7.83509766 -20.94555664 9.35009766 C-21.27555664 9.02009766 -21.60555664 8.69009766 -21.94555664 8.35009766 C-22.37868164 8.80384766 -22.81180664 9.25759766 -23.25805664 9.72509766 C-24.94555664 11.35009766 -24.94555664 11.35009766 -27.94555664 13.35009766 C-27.61555664 14.01009766 -27.28555664 14.67009766 -26.94555664 15.35009766 C-29.25555664 15.35009766 -31.56555664 15.35009766 -33.94555664 15.35009766 C-34.37868164 16.27822266 -34.37868164 16.27822266 -34.82055664 17.22509766 C-35.94555664 19.35009766 -35.94555664 19.35009766 -37.94555664 21.35009766 C-40.63395049 21.62001672 -43.236976 21.43747123 -45.94555664 21.35009766 C-45.94555664 22.01009766 -45.94555664 22.67009766 -45.94555664 23.35009766 C-47.26555664 22.69009766 -48.58555664 22.03009766 -49.94555664 21.35009766 C-48.98133789 20.94017578 -48.01711914 20.53025391 -47.02368164 20.10791016 C-45.74761233 19.56370413 -44.4715722 19.01942969 -43.19555664 18.47509766 C-42.56133789 18.20568359 -41.92711914 17.93626953 -41.27368164 17.65869141 C-38.11540622 16.30984461 -34.9929336 14.93534931 -31.94555664 13.35009766 C-31.94555664 12.69009766 -31.94555664 12.03009766 -31.94555664 11.35009766 C-29.66446651 9.58114905 -27.38370118 7.91984322 -25.00805664 6.28759766 C-16.14184646 0.10811783 -10.75171031 0.06853532 0 0 Z " fill="#23865A" transform="translate(156.945556640625,84.64990234375)"/>
<path d="M0 0 C0 1.32 0 2.64 0 4 C-29.7 4 -59.4 4 -90 4 C-90 3.67 -90 3.34 -90 3 C-62.61 2.67 -35.22 2.34 -7 2 C-67.39 1.505 -67.39 1.505 -129 1 C-129 0.67 -129 0.34 -129 0 C-113.36178198 -0.15418076 -97.72351848 -0.30220517 -82.08517456 -0.4429636 C-74.82351657 -0.5084672 -67.56188741 -0.57596148 -60.30029297 -0.64819336 C-53.96879363 -0.71116838 -47.63727197 -0.7703561 -41.30569553 -0.82505554 C-37.95527322 -0.85413103 -34.60491682 -0.88562725 -31.25454712 -0.92053413 C-27.50826548 -0.95924428 -23.76198149 -0.9912606 -20.015625 -1.02172852 C-18.91294785 -1.03467453 -17.81027069 -1.04762054 -16.67417908 -1.06095886 C-11.00871532 -1.09971271 -5.60217677 -0.8597908 0 0 Z " fill="#399874" transform="translate(267,136)"/>
<path d="M0 0 C0.33 0 0.66 0 1 0 C1.01981934 1.10400146 1.03963867 2.20800293 1.06005859 3.34545898 C1.13666073 7.47751025 1.22528975 11.60923418 1.31738281 15.7409668 C1.35544856 17.52247613 1.3903387 19.30405648 1.421875 21.08569336 C1.46801659 23.6602501 1.5259246 26.23432729 1.5859375 28.80859375 C1.59748871 29.59334579 1.60903992 30.37809784 1.62094116 31.18663025 C1.72212667 35.05745037 2.06720175 38.58248827 3.01147461 42.3425293 C4.32409955 47.79442872 4.2691267 53.1274502 4.23046875 58.7109375 C4.23001053 59.8008902 4.22955231 60.8908429 4.2290802 62.01382446 C4.22607584 64.30138243 4.21824451 66.58893869 4.20581055 68.87646484 C4.1874468 72.38516433 4.18530189 75.89360099 4.18554688 79.40234375 C4.18063492 81.63021062 4.17480801 83.85807571 4.16796875 86.0859375 C4.16685593 87.13590912 4.1657431 88.18588074 4.16459656 89.26766968 C4.15821671 90.23943146 4.15183685 91.21119324 4.14526367 92.21240234 C4.14145187 93.06683929 4.13764008 93.92127625 4.13371277 94.80160522 C4 97 4 97 3 100 C5.97 100 8.94 100 12 100 C12.33 98.68 12.66 97.36 13 96 C13 97.98 13 99.96 13 102 C8.71 102 4.42 102 0 102 C0 68.34 0 34.68 0 0 Z " fill="#E3FEF3" transform="translate(38,40)"/>
<path d="M0 0 C0.72445312 -0.01611328 1.44890625 -0.03222656 2.1953125 -0.04882812 C7.51795882 -0.05373832 7.51795882 -0.05373832 10 1.83203125 C10.33 2.32058594 10.66 2.80914062 11 3.3125 C10.34 5.6225 9.68 7.9325 9 10.3125 C2.07 10.3125 -4.86 10.3125 -12 10.3125 C-11.67 7.6725 -11.34 5.0325 -11 2.3125 C-7.27078729 -0.17364181 -4.31628318 -0.01920055 0 0 Z " fill="#0B8A4D" transform="translate(133,119.6875)"/>
<path d="M0 0 C0.33 0 0.66 0 1 0 C0.125 7.75 0.125 7.75 -1 10 C4.28 10 9.56 10 15 10 C15 10.33 15 10.66 15 11 C17.97 11.33 20.94 11.66 24 12 C24 12.33 24 12.66 24 13 C-4.05 13 -32.1 13 -61 13 C-61 12.34 -61 11.68 -61 11 C-41.86 11 -22.72 11 -3 11 C-1.515 5.555 -1.515 5.555 0 0 Z " fill="#9EF5D1" transform="translate(120,123)"/>
<path d="M0 0 C1.67542976 0.28604898 3.34385343 0.61781233 5 1 C4.01 2.32 3.02 3.64 2 5 C13.22 5 24.44 5 36 5 C36.33 4.34 36.66 3.68 37 3 C37 3.66 37 4.32 37 5 C37.7425 5.144375 38.485 5.28875 39.25 5.4375 C40.61125 5.7159375 40.61125 5.7159375 42 6 C42.70125 6.0825 43.4025 6.165 44.125 6.25 C46.89430165 7.35772066 47.52429718 9.47900769 49 12 C51.06700655 13.32793606 51.06700655 13.32793606 53 14 C52.67 14.99 52.34 15.98 52 17 C48.59607922 14.84141609 45.7197595 12.73819613 42.8527832 9.90576172 C38.7092676 6.3390929 35.24484157 6.09407885 29.91796875 6.1328125 C29.06374832 6.1223288 28.20952789 6.11184509 27.329422 6.1010437 C25.53012415 6.08825586 23.73065852 6.09080967 21.93139648 6.10791016 C19.20312727 6.12490267 16.48329813 6.06744388 13.75585938 6.00390625 C2.64358042 5.82106374 2.64358042 5.82106374 -6.94921875 10.9296875 C-7.63717529 11.64108887 -8.32513184 12.35249023 -9.03393555 13.08544922 C-11.22279176 15.2169543 -13.12362728 16.04548057 -16 17 C-16 17.66 -16 18.32 -16 19 C-16.66 19 -17.32 19 -18 19 C-17.67 17.68 -17.34 16.36 -17 15 C-16.34 15 -15.68 15 -15 15 C-15 14.34 -15 13.68 -15 13 C-14.01 13 -13.02 13 -12 13 C-11.938125 12.443125 -11.87625 11.88625 -11.8125 11.3125 C-10.66626128 8.05012827 -8.50609803 6.31332126 -6 4 C-5.01 4.33 -4.02 4.66 -3 5 C-2.690625 4.360625 -2.38125 3.72125 -2.0625 3.0625 C-1 1 -1 1 0 0 Z " fill="#BDF8E0" transform="translate(141,79)"/>
<path d="M0 0 C2.13037332 0.96494952 4.23456409 1.98928035 6.3125 3.0625 C7.91544922 3.88427734 7.91544922 3.88427734 9.55078125 4.72265625 C10.35902344 5.14417969 11.16726562 5.56570312 12 6 C12 6.33 12 6.66 12 7 C4.4723122 7.0462929 -3.05536088 7.08185365 -10.58315849 7.10362434 C-14.07843927 7.11407198 -17.57362283 7.12824883 -21.06884766 7.15087891 C-25.08497056 7.17671953 -29.10099097 7.18646466 -33.1171875 7.1953125 C-35.00472244 7.21079636 -35.00472244 7.21079636 -36.9303894 7.22659302 C-38.09144196 7.22674408 -39.25249451 7.22689514 -40.44873047 7.22705078 C-41.47465302 7.231492 -42.50057556 7.23593323 -43.55758667 7.24050903 C-46 7 -46 7 -48 5 C-34.8 4.67 -21.6 4.34 -8 4 C-7.67 2.68 -7.34 1.36 -7 0 C-4.23430062 -1.38284969 -2.96967206 -0.80838746 0 0 Z " fill="#1D8359" transform="translate(214,107)"/>
<path d="M0 0 C0.66 0 1.32 0 2 0 C2.125 2.875 2.125 2.875 2 6 C1.34 6.66 0.68 7.32 0 8 C-0.26121647 10.09829956 -0.26121647 10.09829956 -0.16015625 12.515625 C-0.14758789 13.43053711 -0.13501953 14.34544922 -0.12207031 15.28808594 C-0.10241211 16.26551758 -0.08275391 17.24294922 -0.0625 18.25 C-0.05664254 20.26041193 -0.05273501 22.27083049 -0.05078125 24.28125 C-0.03605396 27.60198099 0.03385252 30.90291084 0.20703125 34.21875 C0.30597304 42.3499663 0.30597304 42.3499663 -2.22509766 45.54785156 C-5.49298717 48.83577654 -9.13041391 51.46696778 -13 54 C-13.33 52.68 -13.66 51.36 -14 50 C-12.02 49.34 -10.04 48.68 -8 48 C-8 46.68 -8 45.36 -8 44 C-7.34 44 -6.68 44 -6 44 C-3.55671546 33.07460424 -3.55671546 33.07460424 -2 22 C-2.66 22 -3.32 22 -4 22 C-5.03354508 18.89936477 -5.13364996 16.68555932 -5.125 13.4375 C-5.12886719 11.98150391 -5.12886719 11.98150391 -5.1328125 10.49609375 C-5 8 -5 8 -4 6 C-3.01 6 -2.02 6 -1 6 C-0.67 4.02 -0.34 2.04 0 0 Z " fill="#DAFAEF" transform="translate(160,26)"/>
<path d="M0 0 C3.29159316 -0.05790353 6.58305603 -0.09356261 9.875 -0.125 C10.81214844 -0.14175781 11.74929687 -0.15851563 12.71484375 -0.17578125 C13.61074219 -0.18222656 14.50664063 -0.18867188 15.4296875 -0.1953125 C16.25710449 -0.20578613 17.08452148 -0.21625977 17.93701172 -0.22705078 C20 0 20 0 22 2 C22.3125 5 22.3125 5 22 8 C18.36804504 10.42130331 16.61650652 10.21022785 12.3125 10.125 C11.13300781 10.10695312 9.95351563 10.08890625 8.73828125 10.0703125 C7.83464844 10.04710937 6.93101563 10.02390625 6 10 C6.66 9.67 7.32 9.34 8 9 C8 6.36 8 3.72 8 1 C7.01 1 6.02 1 5 1 C5.04125 1.928125 5.0825 2.85625 5.125 3.8125 C5 7 5 7 3 10 C1.68 10 0.36 10 -1 10 C-0.67 9.01 -0.34 8.02 0 7 C0 7.66 0 8.32 0 9 C0.66 9 1.32 9 2 9 C2 6.36 2 3.72 2 1 C1.34 0.67 0.68 0.34 0 0 Z " fill="#3F0681" transform="translate(54,156)"/>
<path d="M0 0 C1.98 0 3.96 0 6 0 C6 0.66 6 1.32 6 2 C6.99 2 7.98 2 9 2 C9 1.34 9 0.68 9 0 C12.24271506 0.5590888 13.93057424 1.4132178 16 4 C16 4.66 16 5.32 16 6 C16.66 6 17.32 6 18 6 C17.67 4.02 17.34 2.04 17 0 C18.65 0 20.3 0 22 0 C22.99 2.97 23.98 5.94 25 9 C24.01 9 23.02 9 22 9 C21.67 8.01 21.34 7.02 21 6 C21 7.32 21 8.64 21 10 C18.03 10 15.06 10 12 10 C12.33 9.01 12.66 8.02 13 7 C11.68 7 10.36 7 9 7 C9.33 7.99 9.66 8.98 10 10 C6.37 10 2.74 10 -1 10 C-0.67 9.01 -0.34 8.02 0 7 C0 7.66 0 8.32 0 9 C0.66 9 1.32 9 2 9 C2 6.36 2 3.72 2 1 C1.34 0.67 0.68 0.34 0 0 Z " fill="#DBD1E7" transform="translate(224,156)"/>
<path d="M0 0 C1.09570312 0.00902344 2.19140625 0.01804687 3.3203125 0.02734375 C4.16335937 0.03894531 5.00640625 0.05054687 5.875 0.0625 C4.56438409 4.29679756 2.93143741 8.13657404 0.875 12.0625 C-2.755 12.0625 -6.385 12.0625 -10.125 12.0625 C-9.795 11.0725 -9.465 10.0825 -9.125 9.0625 C-10.115 9.3925 -11.105 9.7225 -12.125 10.0625 C-12.455 8.0825 -12.785 6.1025 -13.125 4.0625 C-8.24110307 1.10645712 -5.75606763 -0.06123476 0 0 Z " fill="#0B894D" transform="translate(93.125,117.9375)"/>
<path d="M0 0 C8.25 0 16.5 0 25 0 C24.01 0.495 24.01 0.495 23 1 C23 3.64 23 6.28 23 9 C24.65 8.67 26.3 8.34 28 8 C28 8.66 28 9.32 28 10 C21.73 10 15.46 10 9 10 C9.66 9.67 10.32 9.34 11 9 C11 6.36 11 3.72 11 1 C10.01 1.33 9.02 1.66 8 2 C7.01 1.67 6.02 1.34 5 1 C5 3.64 5 6.28 5 9 C5.66 9.33 6.32 9.66 7 10 C5.02 10 3.04 10 1 10 C1.66 9.67 2.32 9.34 3 9 C3 6.36 3 3.72 3 1 C2.01 0.67 1.02 0.34 0 0 Z " fill="#B19BC5" transform="translate(170,156)"/>
<path d="M0 0 C5.67276511 -0.29341888 8.99067246 -0.00559652 14 3 C14.99 2.01 15.98 1.02 17 0 C18.65 3.3 20.3 6.6 22 10 C19.73020335 10.10794277 17.45894804 10.18556176 15.1875 10.25 C13.92292969 10.29640625 12.65835938 10.3428125 11.35546875 10.390625 C8 10 8 10 6.05078125 7.984375 C5.70402344 7.32953125 5.35726562 6.6746875 5 6 C5 7.32 5 8.64 5 10 C3.35 10 1.7 10 0 10 C0.66 9.67 1.32 9.34 2 9 C2 6.36 2 3.72 2 1 C1.34 0.67 0.68 0.34 0 0 Z " fill="#E3DFEE" transform="translate(81,156)"/>
<path d="M0 0 C2.64 0 5.28 0 8 0 C9.50998663 3.01997326 9.13162799 5.83042159 9.125 9.1875 C9.12757812 10.48042969 9.13015625 11.77335938 9.1328125 13.10546875 C9.00529215 16.84481562 8.60205223 20.31601375 8 24 C5.36 23.67 2.72 23.34 0 23 C0 22.34 0 21.68 0 21 C2.31 21 4.62 21 7 21 C7 20.34 7 19.68 7 19 C4.69 19 2.38 19 0 19 C0 18.34 0 17.68 0 17 C2.31 17 4.62 17 7 17 C7 16.34 7 15.68 7 15 C4.69 15 2.38 15 0 15 C0 14.67 0 14.34 0 14 C2.31 14 4.62 14 7 14 C7 13.34 7 12.68 7 12 C4.69 12 2.38 12 0 12 C0 8.04 0 4.08 0 0 Z " fill="#6CE3B0" transform="translate(25,117)"/>
<path d="M0 0 C1.65 0 3.3 0 5 0 C5 0.66 5 1.32 5 2 C5.33 1.34 5.66 0.68 6 0 C7.99954746 -0.04254356 10.00041636 -0.04080783 12 0 C12.33 0.33 12.66 0.66 13 1 C13.99 0.67 14.98 0.34 16 0 C17.65 3.3 19.3 6.6 21 10 C19.35 10 17.7 10 16 10 C16 9.34 16 8.68 16 8 C15.34 8.66 14.68 9.32 14 10 C11.9375 9.5625 11.9375 9.5625 10 9 C9.67 9.33 9.34 9.66 9 10 C7 11 7 11 4.9375 10.4375 C3 9 3 9 2.375 6.0625 C2.25125 5.051875 2.1275 4.04125 2 3 C1.34 2.01 0.68 1.02 0 0 Z " fill="#E2DCE8" transform="translate(103,156)"/>
<path d="M0 0 C1.32 0 2.64 0 4 0 C4 0.66 4 1.32 4 2 C4.99 2.33 5.98 2.66 7 3 C6.67 3.66 6.34 4.32 6 5 C5.34 5 4.68 5 4 5 C4.33 6.98 4.66 8.96 5 11 C4.01 11.495 4.01 11.495 3 12 C2.94183377 15.41659491 2.90634805 18.83306205 2.875 22.25 C2.85824219 23.21808594 2.84148437 24.18617187 2.82421875 25.18359375 C2.81777344 26.11816406 2.81132812 27.05273438 2.8046875 28.015625 C2.79421387 28.87446289 2.78374023 29.73330078 2.77294922 30.61816406 C3.01888179 33.19807602 3.80492405 34.73035996 5 37 C5 37.99 5 38.98 5 40 C1.125 38.25 1.125 38.25 0 36 C-0.08675538 33.30106819 -0.11557897 30.62830769 -0.09765625 27.9296875 C-0.0962413 27.13345978 -0.09482635 26.33723206 -0.09336853 25.51687622 C-0.08776345 22.9695462 -0.07521014 20.42230353 -0.0625 17.875 C-0.05748565 16.14974085 -0.05292263 14.42448033 -0.04882812 12.69921875 C-0.03779237 8.46611209 -0.02052436 4.23307086 0 0 Z " fill="#DAFCF0" transform="translate(162,32)"/>
<path d="M0 0 C1.65 0 3.3 0 5 0 C4.98839844 0.78246094 4.97679687 1.56492188 4.96484375 2.37109375 C4.95582031 3.38300781 4.94679688 4.39492188 4.9375 5.4375 C4.92589844 6.44683594 4.91429687 7.45617188 4.90234375 8.49609375 C4.71387324 10.94021067 4.71387324 10.94021067 6 12 C6.31046812 17.1744687 5.58455205 21.14730934 4 26 C2.68 26 1.36 26 0 26 C-1.19354532 17.16776465 -0.77546747 8.84032918 0 0 Z " fill="#4DC690" transform="translate(29,53)"/>
<path d="M0 0 C1.39810913 -0.016073 1.39810913 -0.016073 2.82446289 -0.0324707 C6.63309922 0.18821802 9.07416509 1.15387406 12.33984375 3.11328125 C12.83484375 4.59828125 12.83484375 4.59828125 13.33984375 6.11328125 C15.34000841 7.32210221 15.34000841 7.32210221 17.33984375 8.11328125 C16.67984375 8.44328125 16.01984375 8.77328125 15.33984375 9.11328125 C13.9367308 8.37258214 12.56720197 7.56803324 11.21484375 6.73828125 C4.25474557 3.04328795 -2.95311335 3.21846422 -10.66015625 3.11328125 C-10.99015625 3.77328125 -11.32015625 4.43328125 -11.66015625 5.11328125 C-11.66015625 4.45328125 -11.66015625 3.79328125 -11.66015625 3.11328125 C-18.26015625 3.11328125 -24.86015625 3.11328125 -31.66015625 3.11328125 C-31.99015625 3.77328125 -32.32015625 4.43328125 -32.66015625 5.11328125 C-32.66015625 4.45328125 -32.66015625 3.79328125 -32.66015625 3.11328125 C-33.32015625 3.11328125 -33.98015625 3.11328125 -34.66015625 3.11328125 C-34.66015625 2.45328125 -34.66015625 1.79328125 -34.66015625 1.11328125 C-30.24362394 0.9429267 -25.82691366 0.77768771 -21.41015625 0.61328125 C-19.55777344 0.54173828 -19.55777344 0.54173828 -17.66796875 0.46875 C-11.77957612 0.25180922 -5.89220198 0.06592234 0 0 Z " fill="#B8FDE6" transform="translate(229.66015625,113.88671875)"/>
<path d="M0 0 C2.8125 1.375 2.8125 1.375 5.8125 7.375 C-0.7875 7.705 -7.3875 8.035 -14.1875 8.375 C-14.1875 4.375 -14.1875 4.375 -13.1875 1.375 C-9.01560645 -1.56077694 -4.7936522 -0.9399318 0 0 Z " fill="#0E8850" transform="translate(167.1875,74.625)"/>
<path d="M0 0 C3.35553022 0.68831389 6.13960472 1.95129103 9.1875 3.5 C10.06792969 3.9434375 10.94835937 4.386875 11.85546875 4.84375 C14 6 14 6 15 7 C15.04063832 8.66617115 15.042721 10.33388095 15 12 C14.34 12 13.68 12 13 12 C13 10.68 13 9.36 13 8 C1.78 8 -9.44 8 -21 8 C-21 7.34 -21 6.68 -21 6 C-13.74 6 -6.48 6 1 6 C0.67 4.02 0.34 2.04 0 0 Z " fill="#24895E" transform="translate(247,124)"/>
<path d="M0 0 C0.33 0 0.66 0 1 0 C1 3.63 1 7.26 1 11 C-8.57 10.67 -18.14 10.34 -28 10 C-28 9.34 -28 8.68 -28 8 C-24.535 7.505 -24.535 7.505 -21 7 C-21 6.67 -21 6.34 -21 6 C-19.79601562 5.96261719 -18.59203125 5.92523438 -17.3515625 5.88671875 C-15.77600989 5.82107072 -14.20049046 5.75462299 -12.625 5.6875 C-11.8309375 5.66494141 -11.036875 5.64238281 -10.21875 5.61914062 C-8.13784419 5.52214925 -6.06558668 5.27005175 -4 5 C-3.34 4.01 -2.68 3.02 -2 2 C-1.34 2 -0.68 2 0 2 C0 1.34 0 0.68 0 0 Z " fill="#3FA578" transform="translate(175,122)"/>
<path d="M0 0 C3.63 0.33 7.26 0.66 11 1 C11 1.33 11 1.66 11 2 C17.27 2.33 23.54 2.66 30 3 C30.495 4.485 30.495 4.485 31 6 C30.34 6.66 29.68 7.32 29 8 C29 6.68 29 5.36 29 4 C19.1 4.495 19.1 4.495 9 5 C7.02 9.29 5.04 13.58 3 18 C10.26 18.33 17.52 18.66 25 19 C25 19.33 25 19.66 25 20 C16.75 20 8.5 20 0 20 C2.16925333 14.57686668 4.56875006 9.31036171 7 4 C2.38 4 -2.24 4 -7 4 C-5 2 -5 2 -2.375 1.875 C-1.59125 1.91625 -0.8075 1.9575 0 2 C0 1.34 0 0.68 0 0 Z " fill="#84D9B7" transform="translate(92,114)"/>
<path d="M0 0 C0.99 0 1.98 0 3 0 C3.33 1.65 3.66 3.3 4 5 C24.79 5.33 45.58 5.66 67 6 C66.67 6.66 66.34 7.32 66 8 C45.21 8 24.42 8 3 8 C2.34 6.68 1.68 5.36 1 4 C0.34 3.67 -0.32 3.34 -1 3 C-0.67 2.01 -0.34 1.02 0 0 Z " fill="#EAFBF8" transform="translate(13,140)"/>
<path d="M0 0 C0.33 0 0.66 0 1 0 C1.03738281 0.83144531 1.07476562 1.66289062 1.11328125 2.51953125 C1.21189453 4.14955078 1.21189453 4.14955078 1.3125 5.8125 C1.37050781 6.89144531 1.42851563 7.97039063 1.48828125 9.08203125 C2.04482273 12.25559223 2.61054545 12.99534073 5 15 C6.15210808 18.64834225 5.94626165 21.32009358 5 25 C4.67 24.34 4.34 23.68 4 23 C3.34 23 2.68 23 2 23 C1.67 23.99 1.34 24.98 1 26 C-1.0625 26.6875 -1.0625 26.6875 -3 27 C-3 25.68 -3 24.36 -3 23 C-3.66 23 -4.32 23 -5 23 C-5 21.35 -5 19.7 -5 18 C-4.01 17.67 -3.02 17.34 -2 17 C-2.020625 16.195625 -2.04125 15.39125 -2.0625 14.5625 C-2 12 -2 12 -1 11 C-0.76636119 9.15108054 -0.58696365 7.29511969 -0.4375 5.4375 C-0.35371094 4.42558594 -0.26992188 3.41367187 -0.18359375 2.37109375 C-0.12300781 1.58863281 -0.06242187 0.80617188 0 0 Z " fill="#138B54" transform="translate(32,19)"/>
<path d="M0 0 C1.98 0 3.96 0 6 0 C6 1.98 6 3.96 6 6 C6.33 4.02 6.66 2.04 7 0 C9.97 0 12.94 0 16 0 C15.67 1.32 15.34 2.64 15 4 C15.99 3.67 16.98 3.34 18 3 C18.680625 4.175625 18.680625 4.175625 19.375 5.375 C20.88428742 8.03698031 20.88428742 8.03698031 23 10 C21.35 10 19.7 10 18 10 C17.34 8.68 16.68 7.36 16 6 C15.67 6.99 15.34 7.98 15 9 C15.66 9.33 16.32 9.66 17 10 C15.02 10 13.04 10 11 10 C11.66 9.67 12.32 9.34 13 9 C13 6.36 13 3.72 13 1 C12.01 1 11.02 1 10 1 C10.04125 2.11375 10.0825 3.2275 10.125 4.375 C10 8 10 8 8 10 C5.4375 10.1875 5.4375 10.1875 3 10 C2 9 2 9 1.90234375 7.15234375 C1.93489583 5.1015625 1.96744792 3.05078125 2 1 C1.34 0.67 0.68 0.34 0 0 Z " fill="#D8CEE5" transform="translate(199,156)"/>
<path d="M0 0 C0.33 0 0.66 0 1 0 C1.02505615 0.80219971 1.0501123 1.60439941 1.07592773 2.4309082 C1.19182043 6.05827074 1.31457751 9.68536917 1.4375 13.3125 C1.47681641 14.57513672 1.51613281 15.83777344 1.55664062 17.13867188 C1.59853516 18.34716797 1.64042969 19.55566406 1.68359375 20.80078125 C1.72025146 21.91622314 1.75690918 23.03166504 1.79467773 24.1809082 C1.88931209 27.07873571 1.88931209 27.07873571 3 30 C3.5253611 39.31743369 2.66045042 48.70651906 2 58 C1.34 57.67 0.68 57.34 0 57 C0 48.42 0 39.84 0 31 C-1.65 31 -3.3 31 -5 31 C-4.01 29.515 -4.01 29.515 -3 28 C-2.01 28 -1.02 28 0 28 C0 18.76 0 9.52 0 0 Z " fill="#22885B" transform="translate(35,52)"/>
<path d="M0 0 C4.95 0 9.9 0 15 0 C14.01 0.495 14.01 0.495 13 1 C13.26393501 4.43230448 13.26393501 4.43230448 14 8 C14.99 8.66 15.98 9.32 17 10 C14.6875 10.25 14.6875 10.25 12 10 C10.1875 8 10.1875 8 9 6 C8.67 6.66 8.34 7.32 8 8 C8.66 8 9.32 8 10 8 C10 8.66 10 9.32 10 10 C6.7 10 3.4 10 0 10 C0.66 9.67 1.32 9.34 2 9 C2 6.36 2 3.72 2 1 C1.34 0.67 0.68 0.34 0 0 Z " fill="#EFE8F5" transform="translate(128,156)"/>
<path d="M0 0 C0.33 0 0.66 0 1 0 C1.33 18.48 1.66 36.96 2 56 C4.97 56 7.94 56 11 56 C11.33 54.68 11.66 53.36 12 52 C12 53.98 12 55.96 12 58 C7.71 58 3.42 58 -1 58 C-1.19176755 38.65278476 -0.6005315 19.33519771 0 0 Z " fill="#C8FBE8" transform="translate(39,84)"/>
<path d="M0 0 C2.70264758 -0.08035879 5.36386879 -0.02174115 8.06494141 0.10009766 C9.0053125 0.12265625 9.94568359 0.14521484 10.91455078 0.16845703 C13.23711614 0.22740539 15.55647916 0.30961981 17.87744141 0.41259766 C18.24000999 1.86886486 18.59223934 3.32770951 18.93994141 4.78759766 C19.13716797 5.59970703 19.33439453 6.41181641 19.53759766 7.24853516 C19.87744141 9.41259766 19.87744141 9.41259766 18.87744141 11.41259766 C21.35244141 11.90759766 21.35244141 11.90759766 23.87744141 12.41259766 C23.87744141 12.74259766 23.87744141 13.07259766 23.87744141 13.41259766 C29.48744141 13.74259766 35.09744141 14.07259766 40.87744141 14.41259766 C40.87744141 14.74259766 40.87744141 15.07259766 40.87744141 15.41259766 C32.62744141 15.41259766 24.37744141 15.41259766 15.87744141 15.41259766 C16.20744141 12.11259766 16.53744141 8.81259766 16.87744141 5.41259766 C14.21564101 2.75079726 12.83494878 3.11393164 9.12744141 3.10009766 C4.25048064 3.1585744 1.10761614 3.85222874 -3.12255859 6.41259766 C-3.78255859 6.08259766 -4.44255859 5.75259766 -5.12255859 5.41259766 C-4.07283631 2.39642729 -3.27722714 0.63705013 0 0 Z " fill="#1F885D" transform="translate(103.12255859375,117.58740234375)"/>
<path d="M0 0 C1.65 0 3.3 0 5 0 C4.01 0.495 4.01 0.495 3 1 C3 3.64 3 6.28 3 9 C4.32 9 5.64 9 7 9 C6.67 6.03 6.34 3.06 6 0 C8.64 0 11.28 0 14 0 C15.03595522 4.02871475 14.86988854 5.65055731 14 10 C9.05 10 4.1 10 -1 10 C-0.34 9.67 0.32 9.34 1 9 C0.67 6.03 0.34 3.06 0 0 Z " fill="#935DAC" transform="translate(251,156)"/>
<path d="M0 0 C-1.18078125 0.54269531 -2.3615625 1.08539063 -3.578125 1.64453125 C-5.13553047 2.36694222 -6.69281586 3.08961208 -8.25 3.8125 C-9.02730469 4.16892578 -9.80460937 4.52535156 -10.60546875 4.89257812 C-14.38525976 6.65325 -17.72982345 8.38079536 -21 11 C-23.31104818 12.05047644 -25.64583651 13.05007438 -28 14 C-28.969375 14.391875 -29.93875 14.78375 -30.9375 15.1875 C-31.618125 15.455625 -32.29875 15.72375 -33 16 C-32.34 16.33 -31.68 16.66 -31 17 C-31 17.66 -31 18.32 -31 19 C-32.65 19 -34.3 19 -36 19 C-36 16.36 -36 13.72 -36 11 C-33.03 11 -30.06 11 -27 11 C-27 10.34 -27 9.68 -27 9 C-26.34 9 -25.68 9 -25 9 C-25 8.34 -25 7.68 -25 7 C-24.16855469 6.81824219 -23.33710937 6.63648437 -22.48046875 6.44921875 C-21.39378906 6.19785156 -20.30710937 5.94648437 -19.1875 5.6875 C-17.56908203 5.32205078 -17.56908203 5.32205078 -15.91796875 4.94921875 C-12.97344539 3.99136175 -11.98549964 3.25461856 -10 1 C-6.15214289 -0.637386 -3.97365037 -1.20153575 0 0 Z " fill="#D1F8E9" transform="translate(87,117)"/>
<path d="M0 0 C1.55977064 3.11954128 1.12104126 6.42959384 1.09765625 9.8515625 C1.0962413 10.62559418 1.09482635 11.39962585 1.09336853 12.19711304 C1.08776403 14.67311442 1.07521083 17.14902588 1.0625 19.625 C1.05748558 21.30208203 1.05292257 22.97916547 1.04882812 24.65625 C1.03779315 28.77086806 1.02052554 32.88541878 1 37 C0.67 37 0.34 37 0 37 C-0.04898438 36.00097656 -0.09796875 35.00195312 -0.1484375 33.97265625 C-0.22320312 32.68230469 -0.29796875 31.39195313 -0.375 30.0625 C-0.47941406 28.13083984 -0.47941406 28.13083984 -0.5859375 26.16015625 C-0.72257812 25.11730469 -0.85921875 24.07445312 -1 23 C-1.66 22.67 -2.32 22.34 -3 22 C-2.67 18.37 -2.34 14.74 -2 11 C-3.65 11 -5.3 11 -7 11 C-7.3125 8.3125 -7.3125 8.3125 -7 5 C-2.86956522 0 -2.86956522 0 0 0 Z " fill="#349569" transform="translate(36,42)"/>
<path d="M0 0 C0.99 0.33 1.98 0.66 3 1 C-0.25970365 3.70843023 -3.58807643 5.21336908 -7.5 6.8125 C-14.15722054 9.57796969 -20.59358777 12.69119368 -27 16 C-27.33 15.34 -27.66 14.68 -28 14 C-27.34 12.68 -26.68 11.36 -26 10 C-23.03 10 -20.06 10 -17 10 C-17 8.68 -17 7.36 -17 6 C-4.22014925 0.37686567 -4.22014925 0.37686567 0 2 C0 1.34 0 0.68 0 0 Z " fill="#D3F6E9" transform="translate(120,98)"/>
<path d="M0 0 C3.96 0 7.92 0 12 0 C13 4 13 4 13 7 C14.32 7.66 15.64 8.32 17 9 C17 6.36 17 3.72 17 1 C16.34 0.67 15.68 0.34 15 0 C16.98 0 18.96 0 21 0 C20.01 0.495 20.01 0.495 19 1 C19 3.64 19 6.28 19 9 C19.66 9.33 20.32 9.66 21 10 C17.96663814 10.22893297 15.02534949 10.36475845 12 10 C9.9375 8 9.9375 8 9 6 C9 7.32 9 8.64 9 10 C7.35 10 5.7 10 4 10 C4.66 9.67 5.32 9.34 6 9 C6 6.36 6 3.72 6 1 C4.02 1 2.04 1 0 1 C0 0.67 0 0.34 0 0 Z " fill="#5F3F92" transform="translate(144,156)"/>
<path d="M0 0 C2.31 0 4.62 0 7 0 C7.12375 0.969375 7.2475 1.93875 7.375 2.9375 C7.58125 3.948125 7.7875 4.95875 8 6 C8.66 6.33 9.32 6.66 10 7 C10 6.01 10 5.02 10 4 C12.31 4 14.62 4 17 4 C16.67 5.65 16.34 7.3 16 9 C12.67465243 10.10844919 10.37817425 9.84454356 7 9 C7 8.34 7 7.68 7 7 C4.69 7 2.38 7 0 7 C0 4.69 0 2.38 0 0 Z " fill="#1D905E" transform="translate(158,113)"/>
<path d="M0 0 C1.67542976 0.28604898 3.34385343 0.61781233 5 1 C3.02 1.99 3.02 1.99 1 3 C1 3.66 1 4.32 1 5 C0.01 5 -0.98 5 -2 5 C-2.05285156 5.57234375 -2.10570312 6.1446875 -2.16015625 6.734375 C-3.39442163 10.06402113 -5.5650166 11.23291153 -8.4375 13.25 C-9.42621094 13.95640625 -10.41492188 14.6628125 -11.43359375 15.390625 C-14 17 -14 17 -16 17 C-16 17.66 -16 18.32 -16 19 C-16.66 19 -17.32 19 -18 19 C-17.67 17.68 -17.34 16.36 -17 15 C-16.34 15 -15.68 15 -15 15 C-15 14.34 -15 13.68 -15 13 C-14.01 13 -13.02 13 -12 13 C-11.938125 12.443125 -11.87625 11.88625 -11.8125 11.3125 C-10.66626128 8.05012827 -8.50609803 6.31332126 -6 4 C-5.01 4.33 -4.02 4.66 -3 5 C-2.690625 4.360625 -2.38125 3.72125 -2.0625 3.0625 C-1 1 -1 1 0 0 Z " fill="#DDF9EF" transform="translate(141,79)"/>
<path d="M0 0 C2.64 0 5.28 0 8 0 C8 1.65 8 3.3 8 5 C5.69 5 3.38 5 1 5 C1 5.66 1 6.32 1 7 C3.31 7 5.62 7 8 7 C8 7.66 8 8.32 8 9 C5.69 9 3.38 9 1 9 C1 9.66 1 10.32 1 11 C3.31 11 5.62 11 8 11 C8.33 9.02 8.66 7.04 9 5 C9.33 5 9.66 5 10 5 C10.09765625 11.15234375 10.09765625 11.15234375 10 13 C9 14 9 14 6.93359375 14.09765625 C3.46679688 14.04882812 3.46679688 14.04882812 0 14 C0 9.38 0 4.76 0 0 Z " fill="#31AE75" transform="translate(24,129)"/>
<path d="M0 0 C0.66 0 1.32 0 2 0 C2.125 2.875 2.125 2.875 2 6 C1.34 6.66 0.68 7.32 0 8 C-0.27765416 10.32817205 -0.27765416 10.32817205 -0.1953125 13.0078125 C-0.18886719 13.99394531 -0.18242187 14.98007812 -0.17578125 15.99609375 C-0.15902344 17.02863281 -0.14226562 18.06117187 -0.125 19.125 C-0.11597656 20.16527344 -0.10695312 21.20554687 -0.09765625 22.27734375 C-0.07403747 24.85179092 -0.04110149 27.42578212 0 30 C-0.33 30 -0.66 30 -1 30 C-1 27.36 -1 24.72 -1 22 C-1.99 22 -2.98 22 -4 22 C-5.03354508 18.89936477 -5.13364996 16.68555932 -5.125 13.4375 C-5.12757813 12.46683594 -5.13015625 11.49617188 -5.1328125 10.49609375 C-5 8 -5 8 -4 6 C-3.01 6 -2.02 6 -1 6 C-0.67 4.02 -0.34 2.04 0 0 Z " fill="#CDF0E6" transform="translate(160,26)"/>
<path d="M0 0 C6.93 0 13.86 0 21 0 C20.67 1.32 20.34 2.64 20 4 C13.07 3.505 13.07 3.505 6 3 C6 3.66 6 4.32 6 5 C4.68 5 3.36 5 2 5 C2 6.98 2 8.96 2 11 C1.67 11 1.34 11 1 11 C0.67 7.37 0.34 3.74 0 0 Z " fill="#2B9065" transform="translate(176,117)"/>
<path d="M0 0 C1.45823212 -0.0270043 2.91660675 -0.04639787 4.375 -0.0625 C5.18710938 -0.07410156 5.99921875 -0.08570313 6.8359375 -0.09765625 C9 0 9 0 11 1 C11 3.64 11 6.28 11 9 C8.25 9.3125 8.25 9.3125 5 9 C2.75 6.5 2.75 6.5 1 4 C0.34 4 -0.32 4 -1 4 C-0.67 2.68 -0.34 1.36 0 0 Z " fill="#F0EEF6" transform="translate(215,156)"/>
<path d="M0 0 C2.89932357 2.39509338 3.50168276 4.31245243 4 8 C4.66 8 5.32 8 6 8 C6.33 5.69 6.66 3.38 7 1 C8.32 0.67 9.64 0.34 11 0 C10.34 0.66 9.68 1.32 9 2 C10.32 2.99 11.64 3.98 13 5 C12.67 6.65 12.34 8.3 12 10 C8.37 10 4.74 10 1 10 C1.33 9.01 1.66 8.02 2 7 C0.68 6.67 -0.64 6.34 -2 6 C-1.34 5.67 -0.68 5.34 0 5 C-0.2784375 4.0409375 -0.2784375 4.0409375 -0.5625 3.0625 C-0.7790625 2.0415625 -0.7790625 2.0415625 -1 1 C-0.67 0.67 -0.34 0.34 0 0 Z " fill="#C4AFCF" transform="translate(38,156)"/>
<path d="M0 0 C10.20420819 -0.57614726 17.92171565 -0.38542292 27 5 C27 5.33 27 5.66 27 6 C23.37 6 19.74 6 16 6 C16 4.68 16 3.36 16 2 C12.7 2 9.4 2 6 2 C6 2.99 6 3.98 6 5 C4.68 5.33 3.36 5.66 2 6 C1.34 4.02 0.68 2.04 0 0 Z " fill="#25885C" transform="translate(220,118)"/>
<path d="M0 0 C0 2.31 0 4.62 0 7 C-0.99 7 -1.98 7 -3 7 C-3 6.34 -3 5.68 -3 5 C-5.31 5 -7.62 5 -10 5 C-10 4.67 -10 4.34 -10 4 C-8.02 4 -6.04 4 -4 4 C-4 3.34 -4 2.68 -4 2 C-19.51 2 -35.02 2 -51 2 C-51 1.67 -51 1.34 -51 1 C-44.2190033 0.85714668 -37.4379965 0.71477985 -30.65698242 0.57275391 C-28.34936287 0.52436388 -26.04174567 0.4758618 -23.73413086 0.42724609 C-20.42041624 0.35745369 -17.10669344 0.28806209 -13.79296875 0.21875 C-12.7585112 0.19687622 -11.72405365 0.17500244 -10.6582489 0.15246582 C-9.21709465 0.12243469 -9.21709465 0.12243469 -7.74682617 0.09179688 C-6.90077316 0.07403198 -6.05472015 0.05626709 -5.18302917 0.03796387 C-3.45556764 0.00792253 -1.72772274 0 0 0 Z " fill="#50A07E" transform="translate(157,113)"/>
<path d="M0 0 C19.14 0.33 38.28 0.66 58 1 C58 1.33 58 1.66 58 2 C40.18 2 22.36 2 4 2 C3.67 3.65 3.34 5.3 3 7 C2.01 6.67 1.02 6.34 0 6 C0 4.02 0 2.04 0 0 Z " fill="#94DFC2" transform="translate(165,113)"/>
<path d="M0 0 C1 1 1 1 1.09765625 3.06640625 C1.08605469 3.89011719 1.07445312 4.71382813 1.0625 5.5625 C1.05347656 6.38878906 1.04445313 7.21507813 1.03515625 8.06640625 C1.02355469 8.70449219 1.01195312 9.34257813 1 10 C-1.64 10 -4.28 10 -7 10 C-7 7.03 -7 4.06 -7 1 C-4.51588385 -0.24205807 -2.74800896 -0.14092354 0 0 Z " fill="#96F3D1" transform="translate(33,84)"/>
<path d="M0 0 C1.98 0 3.96 0 6 0 C6 0.66 6 1.32 6 2 C6.99 2 7.98 2 9 2 C9 1.34 9 0.68 9 0 C9.66 0.33 10.32 0.66 11 1 C11.625 3.5625 11.625 3.5625 12 6 C11.01 6 10.02 6 9 6 C9.33 7.32 9.66 8.64 10 10 C6.37 10 2.74 10 -1 10 C-0.67 9.01 -0.34 8.02 0 7 C0 7.66 0 8.32 0 9 C0.66 9 1.32 9 2 9 C2 6.36 2 3.72 2 1 C1.34 0.67 0.68 0.34 0 0 Z " fill="#A180B7" transform="translate(224,156)"/>
<path d="M0 0 C6.27 0 12.54 0 19 0 C19.33 1.32 19.66 2.64 20 4 C19.01 4.33 18.02 4.66 17 5 C17 4.34 17 3.68 17 3 C15.08268082 3.11455681 13.1661325 3.24206258 11.25 3.375 C9.64898437 3.47941406 9.64898437 3.47941406 8.015625 3.5859375 C5.19793568 3.9728223 3.4169634 4.55686166 1 6 C0.67 4.02 0.34 2.04 0 0 Z " fill="#2E8F67" transform="translate(199,117)"/>
<path d="M0 0 C0.66 0.33 1.32 0.66 2 1 C1.34 2.32 0.68 3.64 0 5 C-7.59 5 -15.18 5 -23 5 C-22.67 4.01 -22.34 3.02 -22 2 C-14.74 2 -7.48 2 0 2 C0 1.34 0 0.68 0 0 Z " fill="#128653" transform="translate(117,128)"/>
<path d="M0 0 C0.33 0 0.66 0 1 0 C1 1.65 1 3.3 1 5 C-0.98 5.99 -0.98 5.99 -3 7 C-3 6.34 -3 5.68 -3 5 C-9.435 5.495 -9.435 5.495 -16 6 C-16 6.33 -16 6.66 -16 7 C-19.63 7 -23.26 7 -27 7 C-27 6.67 -27 6.34 -27 6 C-25.35 5.67 -23.7 5.34 -22 5 C-23.65 5 -25.3 5 -27 5 C-27 4.34 -27 3.68 -27 3 C-21.08351245 1.90435416 -15.55217508 2.06233677 -9.5625 2.4375 C-8.64017578 2.48970703 -7.71785156 2.54191406 -6.76757812 2.59570312 C-4.51128464 2.72430016 -2.25555971 2.8592071 0 3 C0 2.01 0 1.02 0 0 Z " fill="#1B995B" transform="translate(174,119)"/>
<path d="M0 0 C2.04119788 1.61594832 4.04072937 3.2856382 6 5 C6 5.66 6 6.32 6 7 C-5.22 7 -16.44 7 -28 7 C-28 6.67 -28 6.34 -28 6 C-13.645 5.01 -13.645 5.01 1 4 C0.34 3.34 -0.32 2.68 -1 2 C-0.67 1.34 -0.34 0.68 0 0 Z " fill="#41A378" transform="translate(171,77)"/>
<path d="M0 0 C8.58 0 17.16 0 26 0 C26 0.66 26 1.32 26 2 C19.73 2 13.46 2 7 2 C7.66 6.62 8.32 11.24 9 16 C8.34 15.67 7.68 15.34 7 15 C6.5859375 12.05859375 6.5859375 12.05859375 6.375 8.4375 C6.30023438 7.23996094 6.22546875 6.04242188 6.1484375 4.80859375 C6.09945312 3.88175781 6.05046875 2.95492187 6 2 C4.02 2 2.04 2 0 2 C0 1.34 0 0.68 0 0 Z " fill="#B0FEE0" transform="translate(169,115)"/>
<path d="M0 0 C0.33 0 0.66 0 1 0 C1 8.25 1 16.5 1 25 C0.01 24.67 -0.98 24.34 -2 24 C-2.05787784 20.37506666 -2.0935542 16.75025143 -2.125 13.125 C-2.14175781 12.09246094 -2.15851562 11.05992188 -2.17578125 9.99609375 C-2.18222656 9.00996094 -2.18867188 8.02382812 -2.1953125 7.0078125 C-2.20578613 6.09660645 -2.21625977 5.18540039 -2.22705078 4.24658203 C-2 2 -2 2 0 0 Z " fill="#1D8659" transform="translate(24,87)"/>
<path d="M0 0 C1.32 0.33 2.64 0.66 4 1 C4 3.64 4 6.28 4 9 C0.67576157 10.10807948 -0.67190578 9.76802174 -4 9 C-4.66 9 -5.32 9 -6 9 C-6 6.36 -6 3.72 -6 1 C-5.67 1.99 -5.34 2.98 -5 4 C-3.35 3.34 -1.7 2.68 0 2 C0 1.34 0 0.68 0 0 Z " fill="#F1ECF8" transform="translate(169,156)"/>
<path d="M0 0 C5.61 0 11.22 0 17 0 C15.68 0.33 14.36 0.66 13 1 C13 1.99 13 2.98 13 4 C13.66 4.33 14.32 4.66 15 5 C14.34 5 13.68 5 13 5 C13 6.32 13 7.64 13 9 C14.65 8.67 16.3 8.34 18 8 C18 8.66 18 9.32 18 10 C15.03 10 12.06 10 9 10 C9.66 9.67 10.32 9.34 11 9 C11 6.36 11 3.72 11 1 C10.01 1.33 9.02 1.66 8 2 C7.01 1.67 6.02 1.34 5 1 C5 3.64 5 6.28 5 9 C5.66 9.33 6.32 9.66 7 10 C5.02 10 3.04 10 1 10 C1.66 9.67 2.32 9.34 3 9 C3 6.36 3 3.72 3 1 C2.01 0.67 1.02 0.34 0 0 Z " fill="#3E166C" transform="translate(170,156)"/>
<path d="M0 0 C5.62329079 -0.12365152 11.24578953 -0.2143631 16.87011719 -0.2746582 C18.78301783 -0.29979381 20.69582251 -0.33390784 22.60839844 -0.37719727 C25.35896473 -0.43789252 28.10826099 -0.46621845 30.859375 -0.48828125 C31.71368103 -0.51408768 32.56798706 -0.5398941 33.44818115 -0.56648254 C39.42152696 -0.56930051 39.42152696 -0.56930051 42.57128906 2.53051758 C43.04276367 3.34544678 43.51423828 4.16037598 44 5 C43.01 5 42.02 5 41 5 C41 4.34 41 3.68 41 3 C39.88625 3.020625 38.7725 3.04125 37.625 3.0625 C34 3 34 3 32 2 C29.59161322 1.91360131 27.21266119 1.88432236 24.8046875 1.90234375 C24.09724396 1.9037587 23.38980042 1.90517365 22.66091919 1.90663147 C20.39890331 1.912234 18.13698602 1.92478682 15.875 1.9375 C14.34244935 1.94251468 12.80989714 1.94707764 11.27734375 1.95117188 C7.51819112 1.96220423 3.75911228 1.97947048 0 2 C0 1.34 0 0.68 0 0 Z " fill="#2D8861" transform="translate(140,85)"/>
<path d="M0 0 C0.99 0.33 1.98 0.66 3 1 C2.86184471 4.81281945 2.71319438 8.62515717 2.5625 12.4375 C2.52318359 13.52611328 2.48386719 14.61472656 2.44335938 15.73632812 C2.40146484 16.77080078 2.35957031 17.80527344 2.31640625 18.87109375 C2.27974854 19.82943115 2.24309082 20.78776855 2.20532227 21.77514648 C2 24 2 24 1 25 C0.76572222 27.01594582 0.58663876 29.038474 0.4375 31.0625 C0.31181641 32.71958984 0.31181641 32.71958984 0.18359375 34.41015625 C0.12300781 35.26480469 0.06242188 36.11945313 0 37 C-0.33 37 -0.66 37 -1 37 C-1.0246501 31.89136104 -1.04283607 26.78275641 -1.05493164 21.67407227 C-1.05997204 19.93480832 -1.0668043 18.19554864 -1.07543945 16.45629883 C-1.08751792 13.96174063 -1.09323108 11.46723827 -1.09765625 8.97265625 C-1.10281754 8.19036148 -1.10797882 7.40806671 -1.11329651 6.60206604 C-1.11349226 4.73432886 -1.06199694 2.86670796 -1 1 C-0.67 0.67 -0.34 0.34 0 0 Z " fill="#56917A" transform="translate(160,32)"/>
<path d="M0 0 C2.64 0 5.28 0 8 0 C8.68707555 2.49064888 9 4.37886292 9 7 C11.475 7.99 11.475 7.99 14 9 C14 9.33 14 9.66 14 10 C11.1875 10.25 11.1875 10.25 8 10 C6.125 8 6.125 8 5 6 C5 7.32 5 8.64 5 10 C3.35 10 1.7 10 0 10 C0.66 9.67 1.32 9.34 2 9 C2 6.36 2 3.72 2 1 C1.34 0.67 0.68 0.34 0 0 Z " fill="#481771" transform="translate(81,156)"/>
<path d="M0 0 C4.29 0 8.58 0 13 0 C12.01 0.33 11.02 0.66 10 1 C10 3.64 10 6.28 10 9 C10.99 9.33 11.98 9.66 13 10 C10.69 10 8.38 10 6 10 C6.66 9.67 7.32 9.34 8 9 C8 6.36 8 3.72 8 1 C7.01 1 6.02 1 5 1 C5.04125 1.928125 5.0825 2.85625 5.125 3.8125 C5 7 5 7 3 10 C1.68 10 0.36 10 -1 10 C-0.67 9.01 -0.34 8.02 0 7 C0 7.66 0 8.32 0 9 C0.66 9 1.32 9 2 9 C2 6.36 2 3.72 2 1 C1.34 0.67 0.68 0.34 0 0 Z " fill="#591E85" transform="translate(54,156)"/>
<path d="M0 0 C-1.25 1.5 -1.25 1.5 -3 3 C-4.32 3 -5.64 3 -7 3 C-7.20625 3.61875 -7.4125 4.2375 -7.625 4.875 C-9.60308027 7.93203314 -11.50895124 8.19437336 -15 9 C-18.375 9.125 -18.375 9.125 -21 9 C-17.87797117 5.48771756 -14.75126289 3.6522465 -10.5 1.6875 C-8.81390625 0.88892578 -8.81390625 0.88892578 -7.09375 0.07421875 C-4.0463661 -0.98390066 -2.91262612 -1.22073301 0 0 Z " fill="#26875E" transform="translate(87,119)"/>
<path d="M0 0 C7.26 0 14.52 0 22 0 C22 0.66 22 1.32 22 2 C19.14839609 2.81434143 16.63373869 3.11881242 13.671875 3.09765625 C12.87265625 3.09443359 12.0734375 3.09121094 11.25 3.08789062 C10.425 3.07951172 9.6 3.07113281 8.75 3.0625 C7.90953125 3.05798828 7.0690625 3.05347656 6.203125 3.04882812 C4.13538599 3.03707961 2.06768376 3.01914522 0 3 C0 2.01 0 1.02 0 0 Z " fill="#319069" transform="translate(178,130)"/>
<path d="M0 0 C0.33 0 0.66 0 1 0 C1.33 10.89 1.66 21.78 2 33 C2.99 32.505 2.99 32.505 4 32 C4 32.66 4 33.32 4 34 C4.99 34.33 5.98 34.66 7 35 C6.01 35 5.02 35 4 35 C4 36.32 4 37.64 4 39 C1.525 39.495 1.525 39.495 -1 40 C-0.67 26.8 -0.34 13.6 0 0 Z " fill="#479F79" transform="translate(25,40)"/>
<path d="M0 0 C4.62885226 0.10469133 7.77948217 1.04392747 11.8125 3.3125 C12.1425 4.3025 12.4725 5.2925 12.8125 6.3125 C14.81266466 7.52132096 14.81266466 7.52132096 16.8125 8.3125 C15.8225 8.8075 15.8225 8.8075 14.8125 9.3125 C12.4296875 8.31640625 12.4296875 8.31640625 9.6875 6.875 C8.77742187 6.40191406 7.86734375 5.92882812 6.9296875 5.44140625 C6.23101562 5.06886719 5.53234375 4.69632812 4.8125 4.3125 C4.8125 3.6525 4.8125 2.9925 4.8125 2.3125 C1.1825 2.3125 -2.4475 2.3125 -6.1875 2.3125 C-3.81422281 -0.06077719 -3.23775894 0.0167182 0 0 Z " fill="#E0FCF3" transform="translate(230.1875,113.6875)"/>
<path d="M0 0 C1.09570312 0.00902344 2.19140625 0.01804687 3.3203125 0.02734375 C4.16335937 0.03894531 5.00640625 0.05054687 5.875 0.0625 C5.215 2.0425 4.555 4.0225 3.875 6.0625 C2.225 6.3925 0.575 6.7225 -1.125 7.0625 C-1.125 5.7425 -1.125 4.4225 -1.125 3.0625 C-2.775 3.7225 -4.425 4.3825 -6.125 5.0625 C-6.785 3.7425 -7.445 2.4225 -8.125 1.0625 C-5.36047967 -0.31976016 -3.0788637 -0.03275387 0 0 Z " fill="#1A8858" transform="translate(93.125,117.9375)"/>
<path d="M0 0 C1.65 0 3.3 0 5 0 C4.01 0.495 4.01 0.495 3 1 C3 3.64 3 6.28 3 9 C7.455 8.505 7.455 8.505 12 8 C12 7.34 12 6.68 12 6 C11.01 5.34 10.02 4.68 9 4 C10.32 3.67 11.64 3.34 13 3 C13 3.66 13 4.32 13 5 C13.66 5 14.32 5 15 5 C14.67 6.65 14.34 8.3 14 10 C9.05 10 4.1 10 -1 10 C-0.34 9.67 0.32 9.34 1 9 C0.67 6.03 0.34 3.06 0 0 Z " fill="#551A89" transform="translate(251,156)"/>
<path d="M0 0 C0.57111511 0.16076523 1.14223022 0.32153046 1.73065186 0.48716736 C3.99029778 0.99780747 5.99698057 1.15656284 8.30957031 1.20532227 C9.15013977 1.22526749 9.99070923 1.24521271 10.85675049 1.26576233 C11.75480408 1.28247482 12.65285767 1.29918732 13.578125 1.31640625 C14.5046991 1.33718735 15.43127319 1.35796844 16.38592529 1.37937927 C19.34054272 1.44466961 22.29524768 1.50366431 25.25 1.5625 C27.25521732 1.60570473 29.26042585 1.64931965 31.265625 1.69335938 C36.17699404 1.80032999 41.08845097 1.90165518 46 2 C46 2.33 46 2.66 46 3 C30.82 3 15.64 3 0 3 C0 2.01 0 1.02 0 0 Z " fill="#4F9275" transform="translate(17,142)"/>
<path d="M0 0 C0.66 0.33 1.32 0.66 2 1 C1.67 1.598125 1.34 2.19625 1 2.8125 C-0.20787988 5.05386471 -0.20787988 5.05386471 0 8 C-3.96 8 -7.92 8 -12 8 C-7.44569288 3.44569288 -7.44569288 3.44569288 -3.875 1.6875 C-2.85019531 1.16736328 -2.85019531 1.16736328 -1.8046875 0.63671875 C-1.20914063 0.42660156 -0.61359375 0.21648437 0 0 Z " fill="#368565" transform="translate(105,107)"/>
<path d="M0 0 C2.5 0.8125 2.5 0.8125 5.5 2.8125 C5.5 3.8025 5.5 4.7925 5.5 5.8125 C-1.34824903 7.21327821 -1.34824903 7.21327821 -4.5 5.8125 C-4.83 4.8225 -5.16 3.8325 -5.5 2.8125 C-3.6713864 0.40642948 -3.1013698 -0.23260274 0 0 Z " fill="#108653" transform="translate(211.5,106.1875)"/>
<path d="M0 0 C0 2.64 0 5.28 0 8 C-1.65 7.67 -3.3 7.34 -5 7 C-5.33 6.01 -5.66 5.02 -6 4 C-7.99665314 2.31461399 -7.99665314 2.31461399 -10 1 C-6.42181037 -1.33958553 -4.07775191 -0.9267618 0 0 Z " fill="#F9F4F2" transform="translate(56,157)"/>
<path d="M0 0 C0.33 0.66 0.66 1.32 1 2 C16.84 2.495 16.84 2.495 33 3 C33 3.33 33 3.66 33 4 C22.11 4 11.22 4 0 4 C-0.33 4.66 -0.66 5.32 -1 6 C-1.66 6 -2.32 6 -3 6 C-3 5.34 -3 4.68 -3 4 C-3.99 3.67 -4.98 3.34 -6 3 C-4.02 2.01 -2.04 1.02 0 0 Z " fill="#37986D" transform="translate(59,130)"/>
<path d="M0 0 C1.32 0.33 2.64 0.66 4 1 C3.34 1.66 2.68 2.32 2 3 C1.6706462 4.9368613 1.6706462 4.9368613 1.68115234 7.17431641 C1.66128265 8.03505768 1.64141296 8.89579895 1.62094116 9.78262329 C1.60938995 10.71287323 1.59783875 11.64312317 1.5859375 12.6015625 C1.56657135 13.55316254 1.5472052 14.50476257 1.5272522 15.48519897 C1.46735868 18.53170747 1.42103205 21.57825354 1.375 24.625 C1.33682921 26.6875167 1.29777802 28.7500173 1.2578125 30.8125 C1.16164914 35.87486966 1.07765437 40.93731395 1 46 C0.67 46 0.34 46 0 46 C0 30.82 0 15.64 0 0 Z " fill="#B6EDD4" transform="translate(20,80)"/>
<path d="M0 0 C1.65 0 3.3 0 5 0 C5 3.63 5 7.26 5 11 C3.35 10.67 1.7 10.34 0 10 C0 6.7 0 3.4 0 0 Z " fill="#49C58D" transform="translate(29,53)"/>
<path d="M0 0 C0.66 0.33 1.32 0.66 2 1 C2 2.32 2 3.64 2 5 C-3.28 5 -8.56 5 -14 5 C-13.67 4.01 -13.34 3.02 -13 2 C-9.04 2 -5.08 2 -1 2 C-0.67 1.34 -0.34 0.68 0 0 Z " fill="#C5FDF1" transform="translate(176,130)"/>
<path d="M0 0 C2.64 0 5.28 0 8 0 C7.67 1.32 7.34 2.64 7 4 C7.99 3.67 8.98 3.34 10 3 C10.45375 3.78375 10.9075 4.5675 11.375 5.375 C12.88428742 8.03698031 12.88428742 8.03698031 15 10 C13.35 10 11.7 10 10 10 C9.34 8.68 8.68 7.36 8 6 C7.67 6.99 7.34 7.98 7 9 C7.66 9.33 8.32 9.66 9 10 C7.02 10 5.04 10 3 10 C3.66 9.67 4.32 9.34 5 9 C5 6.36 5 3.72 5 1 C3.35 1 1.7 1 0 1 C0 0.67 0 0.34 0 0 Z " fill="#47167D" transform="translate(207,156)"/>
<path d="M0 0 C3.43950364 0.61198376 5.51564485 1.92058847 8.25 4.0625 C8.95640625 4.61035156 9.6628125 5.15820312 10.390625 5.72265625 C11.18726563 6.35494141 11.18726563 6.35494141 12 7 C11.34 7.66 10.68 8.32 10 9 C8 9 6 9 4 9 C4 8.34 4 7.68 4 7 C3.34 7 2.68 7 2 7 C1.34 4.69 0.68 2.38 0 0 Z " fill="#278D5E" transform="translate(189,94)"/>
<path d="M0 0 C0.33 0 0.66 0 1 0 C1 1.65 1 3.3 1 5 C1.99 5 2.98 5 4 5 C4 3.35 4 1.7 4 0 C5.65 0 7.3 0 9 0 C9 2.64 9 5.28 9 8 C8.34 7.67 7.68 7.34 7 7 C4.99890722 7.32670903 2.99883869 7.65977214 1 8 C0 7 0 7 -0.0625 3.4375 C-0.041875 2.303125 -0.02125 1.16875 0 0 Z " fill="#DED0E5" transform="translate(141,157)"/>
<path d="M0 0 C1.98 0 3.96 0 6 0 C6 2.64 6 5.28 6 8 C5.01 8.33 4.02 8.66 3 9 C3 8.34 3 7.68 3 7 C2.01 7.33 1.02 7.66 0 8 C0 5.36 0 2.72 0 0 Z " fill="#F1E1F8" transform="translate(175,157)"/>
<path d="M0 0 C0.66 1.32 1.32 2.64 2 4 C-5.26 4 -12.52 4 -20 4 C-20 3.34 -20 2.68 -20 2 C-13.4 2 -6.8 2 0 2 C0 1.34 0 0.68 0 0 Z " fill="#2A8A60" transform="translate(222,128)"/>
<path d="M0 0 C7.26 0 14.52 0 22 0 C22 0.66 22 1.32 22 2 C19.02129623 2.99290126 17.40817115 3.05524548 14.33203125 2.87890625 C12.99301758 2.80639648 12.99301758 2.80639648 11.62695312 2.73242188 C10.69818359 2.67634766 9.76941406 2.62027344 8.8125 2.5625 C7.87212891 2.51029297 6.93175781 2.45808594 5.96289062 2.40429688 C3.64158499 2.27468082 1.32071591 2.13971819 -1 2 C-0.67 1.34 -0.34 0.68 0 0 Z " fill="#B3FEE2" transform="translate(103,115)"/>
<path d="M0 0 C0.99 0.33 1.98 0.66 3 1 C2.84660156 1.87785156 2.69320312 2.75570312 2.53515625 3.66015625 C1.69392753 9.54875727 1.63508976 15.50008969 1.4375 21.4375 C1.39431641 22.64599609 1.35113281 23.85449219 1.30664062 25.09960938 C1.20110596 28.06630606 1.09899286 31.03307902 1 34 C0.67 34 0.34 34 0 34 C0 22.78 0 11.56 0 0 Z " fill="#ADDFCF" transform="translate(162,34)"/>
<path d="M0 0 C5.28 0 10.56 0 16 0 C16 0.33 16 0.66 16 1 C11.38 1.33 6.76 1.66 2 2 C3.65 5.96 5.3 9.92 7 14 C6.01 14.495 6.01 14.495 5 15 C4.15415002 13.44424022 3.32381601 11.8800388 2.5 10.3125 C2.0359375 9.44238281 1.571875 8.57226562 1.09375 7.67578125 C0 5 0 5 0 0 Z " fill="#7CD3B0" transform="translate(219,117)"/>
<path d="M0 0 C1.98 0 3.96 0 6 0 C6 2.31 6 4.62 6 7 C4.02 7 2.04 7 0 7 C0 4.69 0 2.38 0 0 Z " fill="#60DAA9" transform="translate(158,113)"/>
<path d="M0 0 C0.33 0.66 0.66 1.32 1 2 C1.763125 1.9175 2.52625 1.835 3.3125 1.75 C6 2 6 2 7.8125 4 C8.204375 4.66 8.59625 5.32 9 6 C6.03 6 3.06 6 0 6 C-0.33 6.66 -0.66 7.32 -1 8 C-1.33 6.35 -1.66 4.7 -2 3 C-1.34 2.67 -0.68 2.34 0 2 C0 1.34 0 0.68 0 0 Z " fill="#198854" transform="translate(180,88)"/>
<path d="M0 0 C1.65 0 3.3 0 5 0 C5.99 2.97 6.98 5.94 8 9 C7.01 9 6.02 9 5 9 C5 7.68 5 6.36 5 5 C4.34 5 3.68 5 3 5 C3.33 6.65 3.66 8.3 4 10 C2.68 9.67 1.36 9.34 0 9 C0.66 9 1.32 9 2 9 C2 6.36 2 3.72 2 1 C1.34 0.67 0.68 0.34 0 0 Z " fill="#674091" transform="translate(18,156)"/>
<path d="M0 0 C1.98 0 3.96 0 6 0 C5.01 0.495 5.01 0.495 4 1 C4 3.64 4 6.28 4 9 C4.66 9.33 5.32 9.66 6 10 C3.03 10 0.06 10 -3 10 C-3.66 8.68 -4.32 7.36 -5 6 C-4.1028125 6.4640625 -4.1028125 6.4640625 -3.1875 6.9375 C-0.91043228 8.10209704 -0.91043228 8.10209704 2 9 C2 6.36 2 3.72 2 1 C1.34 0.67 0.68 0.34 0 0 Z " fill="#3E1571" transform="translate(159,156)"/>
<path d="M0 0 C1.32 0.33 2.64 0.66 4 1 C4.33 2.98 4.66 4.96 5 7 C1 7 1 7 -0.75 5.625 C-2 4 -2 4 -2 2 C-1.34 2 -0.68 2 0 2 C0 1.34 0 0.68 0 0 Z " fill="#F1E8F2" transform="translate(102,158)"/>
<path d="M0 0 C1.5 1.1875 1.5 1.1875 3 3 C3 4.65 3 6.3 3 8 C-0.3 8 -3.6 8 -7 8 C-7 7.34 -7 6.68 -7 6 C-5.5459375 5.62875 -5.5459375 5.62875 -4.0625 5.25 C-2.5465625 4.63125 -2.5465625 4.63125 -1 4 C-0.03122943 1.96756452 -0.03122943 1.96756452 0 0 Z " fill="#1B8F5C" transform="translate(219,122)"/>
<path d="M0 0 C2.64 0 5.28 0 8 0 C6.68 0.33 5.36 0.66 4 1 C4 1.99 4 2.98 4 4 C4.66 4.33 5.32 4.66 6 5 C5.34 5 4.68 5 4 5 C4 6.32 4 7.64 4 9 C5.65 8.67 7.3 8.34 9 8 C9 8.66 9 9.32 9 10 C6.03 10 3.06 10 0 10 C0.66 9.67 1.32 9.34 2 9 C2 6.36 2 3.72 2 1 C1.34 0.67 0.68 0.34 0 0 Z " fill="#3A1269" transform="translate(267,156)"/>
<path d="M0 0 C2.76276177 0.52268466 5.3260876 1.10869587 8 2 C8.33 3.98 8.66 5.96 9 8 C7.35 8 5.7 8 4 8 C3.896875 7.236875 3.79375 6.47375 3.6875 5.6875 C2.95635961 2.82940576 2.23048087 1.84257115 0 0 Z " fill="#BCEBD9" transform="translate(258,128)"/>
<path d="M0 0 C2.11333736 1.82515499 2.97590048 2.92770144 3.875 5.625 C4.431875 6.800625 4.431875 6.800625 5 8 C7.54775306 8.89386164 7.54775306 8.89386164 10 9 C10 9.33 10 9.66 10 10 C7.03 10 4.06 10 1 10 C1.33 9.01 1.66 8.02 2 7 C0.68 6.67 -0.64 6.34 -2 6 C-1.34 5.67 -0.68 5.34 0 5 C-0.2784375 4.0409375 -0.2784375 4.0409375 -0.5625 3.0625 C-0.7790625 2.0415625 -0.7790625 2.0415625 -1 1 C-0.67 0.67 -0.34 0.34 0 0 Z " fill="#4F247A" transform="translate(235,156)"/>
<path d="M0 0 C0.33 0 0.66 0 1 0 C1.03738281 0.81984375 1.07476562 1.6396875 1.11328125 2.484375 C1.17902344 3.56203125 1.24476562 4.6396875 1.3125 5.75 C1.37050781 6.81734375 1.42851563 7.8846875 1.48828125 8.984375 C2.03090154 12.1821068 2.85071145 13.62598691 5 16 C4.01 17.32 3.02 18.64 2 20 C1.566875 18.576875 1.566875 18.576875 1.125 17.125 C0.23174891 13.94788422 0.23174891 13.94788422 -2 12 C-1.67 11.67 -1.34 11.34 -1 11 C-0.76636119 9.15108054 -0.58696365 7.29511969 -0.4375 5.4375 C-0.35371094 4.42558594 -0.26992188 3.41367187 -0.18359375 2.37109375 C-0.12300781 1.58863281 -0.06242187 0.80617188 0 0 Z " fill="#418F6E" transform="translate(32,19)"/>
<path d="M0 0 C2.31 0 4.62 0 7 0 C7.33 1.32 7.66 2.64 8 4 C6.68 3.01 5.36 2.02 4 1 C4 2.32 4 3.64 4 5 C4.66 5.33 5.32 5.66 6 6 C5.34 6 4.68 6 4 6 C4.33 7.32 4.66 8.64 5 10 C3.35 10 1.7 10 0 10 C0.66 9.67 1.32 9.34 2 9 C2 6.36 2 3.72 2 1 C1.34 0.67 0.68 0.34 0 0 Z " fill="#431582" transform="translate(128,156)"/>
<path d="M0 0 C5.94 0 11.88 0 18 0 C18 0.99 18 1.98 18 3 C17.34 3 16.68 3 16 3 C16 3.66 16 4.32 16 5 C15.34 5 14.68 5 14 5 C14 3.68 14 2.36 14 1 C13.34 1 12.68 1 12 1 C12 1.66 12 2.32 12 3 C11.34 3 10.68 3 10 3 C10 2.34 10 1.68 10 1 C6.7 1 3.4 1 0 1 C0 0.67 0 0.34 0 0 Z " fill="#ECFEF9" transform="translate(248,145)"/>
<path d="M0 0 C2.64 0 5.28 0 8 0 C8.33 0.66 8.66 1.32 9 2 C8.34 2 7.68 2 7 2 C7.66 6.62 8.32 11.24 9 16 C8.34 15.67 7.68 15.34 7 15 C6.5859375 12.05859375 6.5859375 12.05859375 6.375 8.4375 C6.30023438 7.23996094 6.22546875 6.04242188 6.1484375 4.80859375 C6.09945312 3.88175781 6.05046875 2.95492187 6 2 C4.02 2 2.04 2 0 2 C0 1.34 0 0.68 0 0 Z " fill="#98F5CE" transform="translate(169,115)"/>
<path d="M0 0 C0.33 0 0.66 0 1 0 C1.3125 2.6875 1.3125 2.6875 1 6 C-1.375 8.625 -1.375 8.625 -4 11 C-5.29519995 13.16620544 -5.29519995 13.16620544 -6 15 C-6.33 15 -6.66 15 -7 15 C-6.67 12.69 -6.34 10.38 -6 8 C-5.01 8 -4.02 8 -3 8 C-1.92474806 5.34771188 -0.90543849 2.71631546 0 0 Z " fill="#C5EFDF" transform="translate(31,24)"/>
<path d="M0 0 C0.66 0.33 1.32 0.66 2 1 C2 3.64 2 6.28 2 9 C0.68 9 -0.64 9 -2 9 C-2 6.36 -2 3.72 -2 1 C-1.34 0.67 -0.68 0.34 0 0 Z " fill="#E4E8F1" transform="translate(256,156)"/>
<path d="M0 0 C2.31 0 4.62 0 7 0 C6.34 2.64 5.68 5.28 5 8 C4.34 8 3.68 8 3 8 C2.01 5.36 1.02 2.72 0 0 Z " fill="#F1EFFA" transform="translate(39,156)"/>
<path d="M0 0 C0.66 0 1.32 0 2 0 C2.79953138 3.28696233 3.09658936 4.71023192 2 8 C2.99 8.33 3.98 8.66 5 9 C4.01 9 3.02 9 2 9 C2 10.98 2 12.96 2 15 C1.34 14.67 0.68 14.34 0 14 C0 9.38 0 4.76 0 0 Z " fill="#1E8F5D" transform="translate(27,42)"/>
<path d="M0 0 C1.32 0 2.64 0 4 0 C4 2.64 4 5.28 4 8 C2.68 8 1.36 8 0 8 C0 5.36 0 2.72 0 0 Z " fill="#E3DDEA" transform="translate(64,157)"/>
<path d="M0 0 C3.36591427 2.72478774 4.44226276 6.06856792 6 10 C4.35 10 2.7 10 1 10 C1.33 9.01 1.66 8.02 2 7 C0.68 6.67 -0.64 6.34 -2 6 C-1.34 5.67 -0.68 5.34 0 5 C-0.2784375 4.0409375 -0.2784375 4.0409375 -0.5625 3.0625 C-0.7790625 2.0415625 -0.7790625 2.0415625 -1 1 C-0.67 0.67 -0.34 0.34 0 0 Z " fill="#4E2382" transform="translate(118,156)"/>
<path d="M0 0 C3.36591427 2.72478774 4.44226276 6.06856792 6 10 C4.35 10 2.7 10 1 10 C1.33 9.01 1.66 8.02 2 7 C0.68 6.67 -0.64 6.34 -2 6 C-1.34 5.67 -0.68 5.34 0 5 C-0.2784375 4.0409375 -0.2784375 4.0409375 -0.5625 3.0625 C-0.7790625 2.0415625 -0.7790625 2.0415625 -1 1 C-0.67 0.67 -0.34 0.34 0 0 Z " fill="#4F2381" transform="translate(38,156)"/>
<path d="M0 0 C3.36591427 2.72478774 4.44226276 6.06856792 6 10 C4.35 10 2.7 10 1 10 C1.33 9.01 1.66 8.02 2 7 C0.68 6.67 -0.64 6.34 -2 6 C-1.34 5.67 -0.68 5.34 0 5 C-0.2784375 4.0409375 -0.2784375 4.0409375 -0.5625 3.0625 C-0.7790625 2.0415625 -0.7790625 2.0415625 -1 1 C-0.67 0.67 -0.34 0.34 0 0 Z " fill="#4D237E" transform="translate(97,156)"/>
<path d="M0 0 C0.66 0 1.32 0 2 0 C2 1.32 2 2.64 2 4 C2.66 4 3.32 4 4 4 C4.33 3.01 4.66 2.02 5 1 C5 3.64 5 6.28 5 9 C3.125 8.75 3.125 8.75 1 8 C-0.25 5.9375 -0.25 5.9375 -1 4 C-0.34 4 0.32 4 1 4 C0.67 2.68 0.34 1.36 0 0 Z " fill="#EADDF8" transform="translate(156,156)"/>
<path d="M0 0 C2.29633824 3.44450737 2.54016485 5.93812283 3 10 C1.02 10 -0.96 10 -3 10 C-2.67 9.01 -2.34 8.02 -2 7 C-1.32811503 4.66816393 -0.66084583 2.33498858 0 0 Z " fill="#199059" transform="translate(197,120)"/>
<path d="M0 0 C0.66 0.33 1.32 0.66 2 1 C1.34 2.32 0.68 3.64 0 5 C-6.27 5 -12.54 5 -19 5 C-19 4.67 -19 4.34 -19 4 C-17.87980469 3.93941406 -16.75960937 3.87882813 -15.60546875 3.81640625 C-14.13280016 3.73198576 -12.66014456 3.64733851 -11.1875 3.5625 C-10.44951172 3.52318359 -9.71152344 3.48386719 -8.95117188 3.44335938 C-5.76928658 3.25618965 -3.03837622 3.01279207 0 2 C0 1.34 0 0.68 0 0 Z " fill="#21855B" transform="translate(117,128)"/>
<path d="M0 0 C3.96 0.33 7.92 0.66 12 1 C12 1.66 12 2.32 12 3 C8.37 3.33 4.74 3.66 1 4 C0.67 2.68 0.34 1.36 0 0 Z " fill="#1A8356" transform="translate(104,111)"/>
<path d="M0 0 C0.99 0 1.98 0 3 0 C3 2.64 3 5.28 3 8 C1.35 8.66 -0.3 9.32 -2 10 C-1.34 6.7 -0.68 3.4 0 0 Z " fill="#F7EEEC" transform="translate(209,157)"/>
<path d="M0 0 C1.98 0 3.96 0 6 0 C5.01 0.495 5.01 0.495 4 1 C4.26393501 4.43230448 4.26393501 4.43230448 5 8 C5.99 8.66 6.98 9.32 8 10 C6.33388095 10.042721 4.66617115 10.04063832 3 10 C2 9 2 9 1.90234375 7.15234375 C1.93489583 5.1015625 1.96744792 3.05078125 2 1 C1.34 0.67 0.68 0.34 0 0 Z " fill="#431D73" transform="translate(137,156)"/>
<path d="M0 0 C1.98 0.99 1.98 0.99 4 2 C4 3.65 4 5.3 4 7 C2.68 7.33 1.36 7.66 0 8 C0 5.36 0 2.72 0 0 Z " fill="#DCD8E8" transform="translate(70,157)"/>
<path d="M0 0 C1.98 0 3.96 0 6 0 C5.01 0.495 5.01 0.495 4 1 C4.26393501 4.43230448 4.26393501 4.43230448 5 8 C5.99 8.66 6.98 9.32 8 10 C6.33388095 10.042721 4.66617115 10.04063832 3 10 C2 9 2 9 1.90234375 7.15234375 C1.93489583 5.1015625 1.96744792 3.05078125 2 1 C1.34 0.67 0.68 0.34 0 0 Z " fill="#431E6F" transform="translate(199,156)"/>
<path d="M0 0 C0.66 0 1.32 0 2 0 C2 2.31 2 4.62 2 7 C1.01 7 0.02 7 -1 7 C-1 6.34 -1 5.68 -1 5 C-3.31 5 -5.62 5 -8 5 C-8 4.67 -8 4.34 -8 4 C-6.02 4 -4.04 4 -2 4 C-2 3.34 -2 2.68 -2 2 C-1.34 2 -0.68 2 0 2 C0 1.34 0 0.68 0 0 Z " fill="#65CEA0" transform="translate(155,113)"/>
<path d="M0 0 C0.99 0 1.98 0 3 0 C3 2.64 3 5.28 3 8 C1.35 8.33 -0.3 8.66 -2 9 C-1.34 6.03 -0.68 3.06 0 0 Z " fill="#EEE6EE" transform="translate(59,157)"/>
<path d="M0 0 C1.65 0 3.3 0 5 0 C5.99 2.97 6.98 5.94 8 9 C7.01 9 6.02 9 5 9 C4.54625 7.88625 4.0925 6.7725 3.625 5.625 C2.27534014 2.03800992 2.27534014 2.03800992 0 0 Z " fill="#562180" transform="translate(241,156)"/>
<path d="M0 0 C2.64 0 5.28 0 8 0 C8.33 1.32 8.66 2.64 9 4 C6.1875 4.25 6.1875 4.25 3 4 C1.125 2 1.125 2 0 0 Z " fill="#7B619F" transform="translate(81,156)"/>
<path d="M0 0 C0.33 0 0.66 0 1 0 C1.09765625 6.15234375 1.09765625 6.15234375 1 8 C0 9 0 9 -2.06640625 9.09765625 C-2.89011719 9.08605469 -3.71382812 9.07445312 -4.5625 9.0625 C-5.38878906 9.05347656 -6.21507812 9.04445312 -7.06640625 9.03515625 C-7.70449219 9.02355469 -8.34257812 9.01195312 -9 9 C-9 8.34 -9 7.68 -9 7 C-6.36 6.67 -3.72 6.34 -1 6 C-0.67 4.02 -0.34 2.04 0 0 Z " fill="#3EB580" transform="translate(33,134)"/>
<path d="M0 0 C0.66 1.32 1.32 2.64 2 4 C1.34 4.66 0.68 5.32 0 6 C-0.66 5.67 -1.32 5.34 -2 5 C-2 7.31 -2 9.62 -2 12 C-2.103125 11.360625 -2.20625 10.72125 -2.3125 10.0625 C-2.539375 9.381875 -2.76625 8.70125 -3 8 C-3.99 7.67 -4.98 7.34 -6 7 C-5.34 6.67 -4.68 6.34 -4 6 C-2.86649466 3.98330173 -2.86649466 3.98330173 -2 2 C-1.34 2 -0.68 2 0 2 C0 1.34 0 0.68 0 0 Z " fill="#328D66" transform="translate(29,32)"/>
<path d="M0 0 C1.65 0 3.3 0 5 0 C5.66 3.3 6.32 6.6 7 10 C5.68 9.67 4.36 9.34 3 9 C2.87625 8.071875 2.7525 7.14375 2.625 6.1875 C2.18466918 2.86074765 2.18466918 2.86074765 0 0 Z " fill="#431477" transform="translate(103,156)"/>
<path d="M0 0 C2.97 0 5.94 0 9 0 C9.33 1.65 9.66 3.3 10 5 C8.51800098 4.55090939 7.03944764 4.09043436 5.5625 3.625 C4.73878906 3.36976562 3.91507813 3.11453125 3.06640625 2.8515625 C1 2 1 2 0 0 Z " fill="#C6ECE0" transform="translate(216,108)"/>
<path d="M0 0 C1.98 0.99 1.98 0.99 4 2 C4 2.66 4 3.32 4 4 C6.97 4.495 6.97 4.495 10 5 C10 6.65 10 8.3 10 10 C8.66102417 9.04956626 7.32894573 8.08940853 6 7.125 C5.2575 6.59132813 4.515 6.05765625 3.75 5.5078125 C3.1725 5.01023437 2.595 4.51265625 2 4 C2 3.34 2 2.68 2 2 C1.34 2 0.68 2 0 2 C0 1.34 0 0.68 0 0 Z " fill="#C4F0E0" transform="translate(167,72)"/>
<path d="M0 0 C2.0625 0.4375 2.0625 0.4375 4 1 C4 2.65 4 4.3 4 6 C2.35 6 0.7 6 -1 6 C-1.042721 4.33388095 -1.04063832 2.66617115 -1 1 C-0.67 0.67 -0.34 0.34 0 0 Z " fill="#5CD49F" transform="translate(30,46)"/>
<path d="M0 0 C1.32 0 2.64 0 4 0 C4 0.66 4 1.32 4 2 C4.99 2.33 5.98 2.66 7 3 C6.67 3.66 6.34 4.32 6 5 C5.34 5 4.68 5 4 5 C4.33 5.99 4.66 6.98 5 8 C4.01 8.33 3.02 8.66 2 9 C2.04125 8.071875 2.0825 7.14375 2.125 6.1875 C2.27136339 2.84190281 2.27136339 2.84190281 0 0 Z " fill="#D4F7EB" transform="translate(162,32)"/>
<path d="M0 0 C0.33 0.66 0.66 1.32 1 2 C1.66 2 2.32 2 3 2 C2.67 3.65 2.34 5.3 2 7 C-0.64 7 -3.28 7 -6 7 C-3 5 -3 5 0 5 C0 4.34 0 3.68 0 3 C-0.99 2.34 -1.98 1.68 -3 1 C-2.01 0.67 -1.02 0.34 0 0 Z " fill="#411172" transform="translate(263,159)"/>
<path d="M0 0 C2.475 0.495 2.475 0.495 5 1 C4.34 2.98 3.68 4.96 3 7 C2.01 6.67 1.02 6.34 0 6 C0 4.02 0 2.04 0 0 Z " fill="#64D5A7" transform="translate(165,113)"/>
<path d="M0 0 C4.12751449 0.60698743 7.3321148 2.03810791 11 4 C11 4.66 11 5.32 11 6 C7.13351728 4.95902388 3.50538557 3.96301592 0 2 C0 1.34 0 0.68 0 0 Z " fill="#C4F0DF" transform="translate(205,102)"/>
<path d="M0 0 C0.99 0.33 1.98 0.66 3 1 C3 3.64 3 6.28 3 9 C1.68 9 0.36 9 -1 9 C-1.09765625 2.84765625 -1.09765625 2.84765625 -1 1 C-0.67 0.67 -0.34 0.34 0 0 Z " fill="#389271" transform="translate(160,32)"/>
<path d="M0 0 C0.33 2.97 0.66 5.94 1 9 C-1 8 -1 8 -2 5 C-3.99665314 3.31461399 -3.99665314 3.31461399 -6 2 C-2.25 0 -2.25 0 0 0 Z " fill="#CFC9E4" transform="translate(52,156)"/>
<path d="M0 0 C4.19115285 0.58210456 5.37542083 1.28156562 9 4 C5.7 4 2.4 4 -1 4 C-0.01 3.67 0.98 3.34 2 3 C1.34 2.67 0.68 2.34 0 2 C0 1.34 0 0.68 0 0 Z " fill="#398267" transform="translate(217,110)"/>
<path d="M0 0 C4.875 0.875 4.875 0.875 6 2 C6.04080783 3.99958364 6.04254356 6.00045254 6 8 C5.01 8 4.02 8 3 8 C3.061875 7.236875 3.12375 6.47375 3.1875 5.6875 C3.25898085 2.95474688 3.25898085 2.95474688 1.5 1.1875 C1.005 0.795625 0.51 0.40375 0 0 Z " fill="#411C83" transform="translate(70,156)"/>
<path d="M0 0 C6.875 2.875 6.875 2.875 8 4 C8.04063832 5.66617115 8.042721 7.33388095 8 9 C7.34 9 6.68 9 6 9 C5.7525 8.21625 5.505 7.4325 5.25 6.625 C3.84610901 3.67682892 2.99324263 3.0975223 0 2 C0 1.34 0 0.68 0 0 Z " fill="#3A8A67" transform="translate(254,127)"/>
<path d="M0 0 C1.32 0 2.64 0 4 0 C4 0.66 4 1.32 4 2 C4.598125 2.103125 5.19625 2.20625 5.8125 2.3125 C8.28243264 3.08876455 9.32251235 4.07088921 11 6 C6.48986609 5.46939601 3.61621781 3.69113883 0 1 C0 0.67 0 0.34 0 0 Z " fill="#C8F6E4" transform="translate(194,96)"/>
<path d="M0 0 C0.99 0.33 1.98 0.66 3 1 C-0.96 4.465 -0.96 4.465 -5 8 C-5.33 6.68 -5.66 5.36 -6 4 C-4.02 3.34 -2.04 2.68 0 2 C0 1.34 0 0.68 0 0 Z " fill="#BFF0DE" transform="translate(152,72)"/>
<path d="M0 0 C0.99 0.33 1.98 0.66 3 1 C2.01 1.495 2.01 1.495 1 2 C2.32 2.99 3.64 3.98 5 5 C4.67 6.32 4.34 7.64 4 9 C1.4375 6.75 1.4375 6.75 -1 4 C-0.8125 1.6875 -0.8125 1.6875 0 0 Z " fill="#4A2A76" transform="translate(46,156)"/>
<path d="M0 0 C0.99 0.33 1.98 0.66 3 1 C3 3.31 3 5.62 3 8 C2.01 8 1.02 8 0 8 C0 5.36 0 2.72 0 0 Z " fill="#DDFAEF" transform="translate(267,132)"/>
<path d="M0 0 C4.05606165 0.46800711 7.46588679 0.87953208 11 3 C11 3.66 11 4.32 11 5 C6.87248551 4.39301257 3.6678852 2.96189209 0 1 C0 0.67 0 0.34 0 0 Z " fill="#C8F2E2" transform="translate(247,123)"/>
<path d="M0 0 C0.99 0.33 1.98 0.66 3 1 C3.33 1.99 3.66 2.98 4 4 C3.67 4.66 3.34 5.32 3 6 C0.9375 6.625 0.9375 6.625 -1 7 C-2 4 -2 4 -1.0625 1.8125 C-0.5365625 0.9153125 -0.5365625 0.9153125 0 0 Z " fill="#128D54" transform="translate(116,122)"/>
<path d="M0 0 C0 0.66 0 1.32 0 2 C1.32 2.66 2.64 3.32 4 4 C3.01 4.495 3.01 4.495 2 5 C-0.1640625 4.22265625 -0.1640625 4.22265625 -2.625 3.0625 C-3.44226563 2.68222656 -4.25953125 2.30195312 -5.1015625 1.91015625 C-5.72804687 1.60980469 -6.35453125 1.30945313 -7 1 C-7 0.67 -7 0.34 -7 0 C-2.25 -1.125 -2.25 -1.125 0 0 Z " fill="#C4F5E2" transform="translate(243,118)"/>
<path d="M0 0 C2.31 0 4.62 0 7 0 C4.60490662 2.89932357 2.68754757 3.50168276 -1 4 C-0.67 2.68 -0.34 1.36 0 0 Z " fill="#A99DC8" transform="translate(215,156)"/>
<path d="M0 0 C1.65 0 3.3 0 5 0 C3.71034824 1.37562854 2.37310707 2.70766393 1 4 C0.34 4 -0.32 4 -1 4 C-1 4.66 -1 5.32 -1 6 C-1.66 6 -2.32 6 -3 6 C-2.67 4.68 -2.34 3.36 -2 2 C-1.34 2 -0.68 2 0 2 C0 1.34 0 0.68 0 0 Z " fill="#CCF8E7" transform="translate(126,92)"/>
<path d="M0 0 C2.0625 0.4375 2.0625 0.4375 4 1 C4 1.99 4 2.98 4 4 C2.68 4.33 1.36 4.66 0 5 C-0.5625 3.0625 -0.5625 3.0625 -1 1 C-0.67 0.67 -0.34 0.34 0 0 Z " fill="#349372" transform="translate(29,86)"/>
<path d="M0 0 C1.65 0.33 3.3 0.66 5 1 C4.67 2.65 4.34 4.3 4 6 C3.67 5.01 3.34 4.02 3 3 C1.35 3 -0.3 3 -2 3 C-1.34 2.01 -0.68 1.02 0 0 Z " fill="#178856" transform="translate(32,80)"/>
<path d="M0 0 C0 2 0 2 -1.42578125 3.54296875 C-2.04839844 4.08566406 -2.67101562 4.62835938 -3.3125 5.1875 C-3.92738281 5.73792969 -4.54226562 6.28835937 -5.17578125 6.85546875 C-5.77777344 7.23316406 -6.37976563 7.61085938 -7 8 C-7.99 7.67 -8.98 7.34 -10 7 C-8.71372289 5.82739389 -7.42080217 4.6620717 -6.125 3.5 C-5.04605469 2.52546875 -5.04605469 2.52546875 -3.9453125 1.53125 C-2 0 -2 0 0 0 Z " fill="#318461" transform="translate(157,72)"/>
<path d="M0 0 C1.32 0.99 2.64 1.98 4 3 C4.33 2.34 4.66 1.68 5 1 C5.33 1.99 5.66 2.98 6 4 C5.34 4.66 4.68 5.32 4 6 C2.02 5.01 0.04 4.02 -2 3 C-2 2.34 -2 1.68 -2 1 C-1.34 0.67 -0.68 0.34 0 0 Z " fill="#ECFBF8" transform="translate(173,73)"/>
<path d="M0 0 C1.32 0 2.64 0 4 0 C4 1.98 4 3.96 4 6 C3.01 5.67 2.02 5.34 1 5 C0.67 3.35 0.34 1.7 0 0 Z " fill="#5CD7A0" transform="translate(29,63)"/>
<path d="M0 0 C0.33 0 0.66 0 1 0 C1.125 5.75 1.125 5.75 0 8 C-1.32 8 -2.64 8 -4 8 C-4 7.34 -4 6.68 -4 6 C-3.34 6 -2.68 6 -2 6 C-2 5.34 -2 4.68 -2 4 C-1.34 4 -0.68 4 0 4 C0 2.68 0 1.36 0 0 Z " fill="#ECFCF9" transform="translate(159,24)"/>
<path d="M0 0 C-0.33 0.99 -0.66 1.98 -1 3 C-2.65 3 -4.3 3 -6 3 C-6 2.01 -6 1.02 -6 0 C-3.50907189 -1.24546405 -2.58919267 -0.7767578 0 0 Z " fill="#927DBF" transform="translate(266,157)"/>
<path d="M0 0 C1.98 0.495 1.98 0.495 4 1 C3.01 2.485 3.01 2.485 2 4 C1.61500109 5.65549531 1.27206865 7.3222433 1 9 C-0.61949011 6.42786866 -1.04408751 5.32330841 -0.625 2.25 C-0.41875 1.5075 -0.2125 0.765 0 0 Z " fill="#B0A0CF" transform="translate(109,156)"/>
<path d="M0 0 C1.32 0.33 2.64 0.66 4 1 C3.01 1.33 2.02 1.66 1 2 C1 2.99 1 3.98 1 5 C-0.65 5 -2.3 5 -4 5 C-3.34 4.67 -2.68 4.34 -2 4 C-0.86649466 1.98330173 -0.86649466 1.98330173 0 0 Z " fill="#28845C" transform="translate(62,128)"/>
<path d="M0 0 C-1.0625 1.5 -1.0625 1.5 -3 3 C-6.6875 3.1875 -6.6875 3.1875 -10 3 C-6.81859267 -0.48439851 -4.56758339 -1.41752588 0 0 Z " fill="#3B8C6A" transform="translate(87,119)"/>
<path d="M0 0 C0.66 0 1.32 0 2 0 C2 2.64 2 5.28 2 8 C0.35 7.67 -1.3 7.34 -3 7 C-2.34 6.67 -1.68 6.34 -1 6 C-1 5.34 -1 4.68 -1 4 C-0.34 4 0.32 4 1 4 C0.67 2.68 0.34 1.36 0 0 Z " fill="#A2FADE" transform="translate(32,86)"/>
<path d="M0 0 C0.99 0.33 1.98 0.66 3 1 C3 2.98 3 4.96 3 7 C2.01 7.33 1.02 7.66 0 8 C0 5.36 0 2.72 0 0 Z " fill="#118550" transform="translate(30,32)"/>
<path d="M0 0 C0.66 1.32 1.32 2.64 2 4 C-0.97 4 -3.94 4 -7 4 C-5 2 -5 2 -2.375 1.875 C-1.59125 1.91625 -0.8075 1.9575 0 2 C0 1.34 0 0.68 0 0 Z " fill="#308D68" transform="translate(222,128)"/>
<path d="M0 0 C0.66 0 1.32 0 2 0 C2 0.66 2 1.32 2 2 C3.65 2.33 5.3 2.66 7 3 C7 3.99 7 4.98 7 6 C4.0625 5.25 4.0625 5.25 1 4 C0.125 1.875 0.125 1.875 0 0 Z " fill="#E6FBF4" transform="translate(177,80)"/>
<path d="M0 0 C2.02054804 1.64169528 4.02043058 3.30911778 6 5 C6 5.33 6 5.66 6 6 C4.35 6 2.7 6 1 6 C1 5.34 1 4.68 1 4 C0.34 3.34 -0.32 2.68 -1 2 C-0.67 1.34 -0.34 0.68 0 0 Z " fill="#368262" transform="translate(171,77)"/>
<path d="M0 0 C0.66 0.33 1.32 0.66 2 1 C2 2.98 2 4.96 2 7 C1.01 6.67 0.02 6.34 -1 6 C-1.042721 4.33388095 -1.04063832 2.66617115 -1 1 C-0.67 0.67 -0.34 0.34 0 0 Z " fill="#82CCB1" transform="translate(158,33)"/>
<path d="M0 0 C0.33 0 0.66 0 1 0 C1 2.64 1 5.28 1 8 C0.01 8.33 -0.98 8.66 -2 9 C-2 7.68 -2 6.36 -2 5 C-1.34 5 -0.68 5 0 5 C0 3.35 0 1.7 0 0 Z " fill="#FEE2F8" transform="translate(172,157)"/>
<path d="M0 0 C0.33 0 0.66 0 1 0 C1 2.97 1 5.94 1 9 C-0.32 8.01 -1.64 7.02 -3 6 C-2.01 4.02 -1.02 2.04 0 0 Z " fill="#D7AEE0" transform="translate(28,156)"/>
<path d="M0 0 C1.32 0 2.64 0 4 0 C4.33 1.32 4.66 2.64 5 4 C4.01 4.33 3.02 4.66 2 5 C1.34 4.67 0.68 4.34 0 4 C0 2.68 0 1.36 0 0 Z " fill="#AB97C5" transform="translate(132,157)"/>
<path d="M0 0 C1.98 0 3.96 0 6 0 C3.60490662 2.89932357 1.68754757 3.50168276 -2 4 C-1.34 3.67 -0.68 3.34 0 3 C0 2.01 0 1.02 0 0 Z " fill="#CAF3E3" transform="translate(56,128)"/>
<path d="M0 0 C1.32 0 2.64 0 4 0 C4 0.66 4 1.32 4 2 C4.66 2 5.32 2 6 2 C6 2.99 6 3.98 6 5 C4 4 2 3 0 2 C0 1.34 0 0.68 0 0 Z " fill="#E6FDF4" transform="translate(243,118)"/>
<path d="M0 0 C3.68754757 0.49831724 5.60490662 1.10067643 8 4 C6.35 4 4.7 4 3 4 C3 3.34 3 2.68 3 2 C2.01 1.67 1.02 1.34 0 1 C0 0.67 0 0.34 0 0 Z " fill="#328763" transform="translate(209,106)"/>
<path d="M0 0 C0.99 0.33 1.98 0.66 3 1 C2.67 2.98 2.34 4.96 2 7 C1.34 6.67 0.68 6.34 0 6 C0 4.02 0 2.04 0 0 Z " fill="#87D4B8" transform="translate(162,34)"/>
</svg>
